<svg xmlns="http://www.w3.org/2000/svg" width="1024" height="1024" viewBox="0 0 1024 1024"><defs><style>.cls-1{fill:#849bb0;}.cls-2{fill:none;}</style></defs><title>Asset 48</title><g id="Layer_2" data-name="Layer 2"><g id="Layer_1-2" data-name="Layer 1"><path class="cls-1" d="M830.3,602v228.1a38.11,38.11,0,0,1-38.2,38.2H607.46a19.16,19.16,0,0,1-19.1-19.1V670.9a19.16,19.16,0,0,0-19.1-19.1H454.65a19.16,19.16,0,0,0-19.1,19.1V849.17a19.16,19.16,0,0,1-19.1,19.1H231.81a38.11,38.11,0,0,1-38.2-38.2V602a19.11,19.11,0,0,1,7-14.8l299.25-246.4a19.4,19.4,0,0,1,24.35,0l299.25,246.4A19.48,19.48,0,0,1,830.3,602ZM963.37,505,830.3,395.37V174.91a19.16,19.16,0,0,0-19.1-19.1H722.06a19.16,19.16,0,0,0-19.1,19.1V290.47L560.5,173.16a76.33,76.33,0,0,0-97.1,0L60.53,505A19.15,19.15,0,0,0,58,531.94l40.59,49.34a19.15,19.15,0,0,0,26.9,2.55L499.86,275.51a19.4,19.4,0,0,1,24.35,0L898.59,583.83a19.15,19.15,0,0,0,26.9-2.55l40.59-49.34A19.16,19.16,0,0,0,963.37,505Z"/><rect class="cls-2" width="1024" height="1024"/></g></g></svg>