<svg xmlns="http://www.w3.org/2000/svg" width="1024" height="1024" viewBox="0 0 1024 1024"><defs><style>.cls-1{fill:#fff;}.cls-2{fill:none;}</style></defs><title>Asset 53</title><g id="Layer_2" data-name="Layer 2"><g id="Layer_1-2" data-name="Layer 1"><path class="cls-1" d="M512,563c126.74,0,229.56-102.82,229.56-229.56S638.74,103.89,512,103.89,282.44,206.71,282.44,333.45,385.26,563,512,563Zm204.05,51H628.22a277.51,277.51,0,0,1-232.43,0H307.95c-112.71,0-204.05,91.35-204.05,204.05v25.51a76.54,76.54,0,0,0,76.52,76.52H843.59a76.54,76.54,0,0,0,76.52-76.52V818.08C920.11,705.37,828.76,614,716.05,614Z"/><rect class="cls-2" width="1024" height="1024"/></g></g></svg>