<svg xmlns="http://www.w3.org/2000/svg" width="1024" height="1024" viewBox="0 0 1024 1024"><defs><style>.cls-1{fill:#073763;}.cls-2{fill:none;}</style></defs><title>Asset 63</title><g id="Layer_2" data-name="Layer 2"><g id="Layer_1-2" data-name="Layer 1"><path class="cls-1" d="M671.05,726.22V682.47c58.4-32.92,106-114.93,106-197,0-131.74,0-238.58-159.05-238.58S459,353.72,459,485.47c0,82.07,47.63,164.08,106,197v43.76C385.2,740.9,246.91,829.28,246.91,936.11H989.16C989.16,829.28,850.87,740.9,671.05,726.22Z"/><path class="cls-1" d="M305.88,746.72v0c45.77-30,102.78-52.69,165.53-66.58a301.12,301.12,0,0,1-33.6-48.88c-25.16-45.77-38.47-96.11-38.47-145.69,0-71.25,0-138.6,25.37-193.69,24.59-53.43,68.86-86.56,131.87-99-14-63.36-51.31-105-150.61-105-159.05,0-159.05,106.84-159.05,238.58,0,82.07,47.63,164.08,106,197v43.76C173.13,581.93,34.84,670.28,34.84,777.12H266A337,337,0,0,1,305.88,746.72Z"/><rect class="cls-2" width="1024" height="1024"/><rect class="cls-2" width="1024" height="1024"/></g></g></svg>