<svg xmlns="http://www.w3.org/2000/svg" width="1024" height="1024" viewBox="0 0 1024 1024"><defs><style>.cls-1{fill:#073763;}.cls-2{fill:none;}</style></defs><title>Asset 67</title><g id="Layer_2" data-name="Layer 2"><g id="Layer_1-2" data-name="Layer 1"><path class="cls-1" d="M838.43,76.76H185.57A81.83,81.83,0,0,0,104,158.37V865.63a81.83,81.83,0,0,0,81.61,81.61H838.43A81.83,81.83,0,0,0,920,865.63V158.37A81.83,81.83,0,0,0,838.43,76.76Zm-27.2,761.67H212.77V185.57H811.23Zm-489.65-272H702.42v54.41H321.58Zm0,108.81H702.42v54.41H321.58ZM376,321.58a81.61,81.61,0,1,1,81.61,81.61A81.63,81.63,0,0,1,376,321.58Zm136,81.61H403.19c-44.9,0-81.61,24.49-81.61,54.41V512h272V457.59C593.61,427.68,556.89,403.19,512,403.19Z"/><rect class="cls-2" width="1024" height="1024"/></g></g></svg>