<svg xmlns="http://www.w3.org/2000/svg" width="1024" height="1024" viewBox="0 0 1024 1024"><defs><style>.cls-1{fill:#073763;}.cls-2{fill:none;}</style></defs><title>Asset 59</title><g id="Layer_2" data-name="Layer 2"><g id="Layer_1-2" data-name="Layer 1"><path class="cls-1" d="M878.5,346h-733a20.81,20.81,0,0,1-20.75-20.75V263.05a83,83,0,0,1,83-83h83V90.17a20.81,20.81,0,0,1,20.75-20.75h69.15a20.81,20.81,0,0,1,20.75,20.75v89.9H622.64V90.17a20.81,20.81,0,0,1,20.75-20.75h69.15a20.81,20.81,0,0,1,20.75,20.75v89.9h83a83,83,0,0,1,83,83v62.24A20.81,20.81,0,0,1,878.5,346Zm-733,55.32h733a20.81,20.81,0,0,1,20.75,20.75V871.59a83,83,0,0,1-83,83H207.73a83,83,0,0,1-83-83V422.1A20.81,20.81,0,0,1,145.5,401.36ZM346,754a20.81,20.81,0,0,0-20.75-20.75H256.14A20.81,20.81,0,0,0,235.39,754v69.15a20.81,20.81,0,0,0,20.75,20.75h69.15A20.81,20.81,0,0,0,346,823.18Zm0-221.29A20.81,20.81,0,0,0,325.29,512H256.14a20.81,20.81,0,0,0-20.75,20.75V601.9a20.81,20.81,0,0,0,20.75,20.75h69.15A20.81,20.81,0,0,0,346,601.9ZM567.32,754a20.81,20.81,0,0,0-20.75-20.75H477.42A20.81,20.81,0,0,0,456.68,754v69.15a20.81,20.81,0,0,0,20.75,20.75h69.15a20.81,20.81,0,0,0,20.75-20.75Zm0-221.29A20.81,20.81,0,0,0,546.58,512H477.42a20.81,20.81,0,0,0-20.75,20.75V601.9a20.81,20.81,0,0,0,20.75,20.75h69.15a20.81,20.81,0,0,0,20.75-20.75ZM788.61,754a20.81,20.81,0,0,0-20.75-20.75H698.71A20.81,20.81,0,0,0,678,754v69.15a20.81,20.81,0,0,0,20.75,20.75h69.15a20.81,20.81,0,0,0,20.75-20.75Zm0-221.29A20.81,20.81,0,0,0,767.86,512H698.71A20.81,20.81,0,0,0,678,532.75V601.9a20.81,20.81,0,0,0,20.75,20.75h69.15a20.81,20.81,0,0,0,20.75-20.75Z"/><rect class="cls-2" width="1024" height="1024"/></g></g></svg>