<svg xmlns="http://www.w3.org/2000/svg" width="1024" height="1024" viewBox="0 0 1024 1024"><defs><style>.cls-1{fill:#666;}.cls-2{fill:none;}</style></defs><title>Asset 83</title><g id="Layer_2" data-name="Layer 2"><g id="Layer_1-2" data-name="Layer 1"><path class="cls-1" d="M708.74,342.37c-.68-6.89-3.93-12.94-8.18-16.15a26.21,26.21,0,0,0-19-8.47,24.89,24.89,0,0,0-18.39,8.48L511,475.64,361.43,327.06c-5.24-5.94-11.91-9.25-19.25-9.3-6.78.26-13,3.13-16.64,7.16a24.18,24.18,0,0,0-10.34,18.27A28.73,28.73,0,0,0,324,366.06L470.27,512,324.34,657.66a28.9,28.9,0,0,0-9.13,23.12c.57,7.53,4.26,14,9,17.17,5.28,5.43,11.58,8.31,18.41,8.31a24.3,24.3,0,0,0,18.12-8.56L511,548.36,662.46,697c5.26,5.92,12,9.2,19.29,9.27a24.89,24.89,0,0,0,17.84-7.6,24.35,24.35,0,0,0,9.15-17,31.34,31.34,0,0,0-8.16-23.71L551.9,512,701.22,365.37A30.65,30.65,0,0,0,708.74,342.37Z"/><path class="cls-1" d="M512,69.34C267.92,69.34,69.34,267.91,69.34,512S267.92,954.66,512,954.66,954.66,756.09,954.66,512,756.08,69.34,512,69.34Zm0,810.52c-202.84,0-367.86-165-367.86-367.86S309.16,144.14,512,144.14,879.86,309.16,879.86,512,714.84,879.86,512,879.86Z"/><rect class="cls-2" width="1024" height="1024"/></g></g></svg>