<svg xmlns="http://www.w3.org/2000/svg" width="1024" height="1024" viewBox="0 0 1024 1024"><defs><style>.cls-1{fill:#073763;}.cls-2{fill:none;}</style></defs><title>Asset 76</title><g id="Layer_2" data-name="Layer 2"><g id="Layer_1-2" data-name="Layer 1"><path class="cls-1" d="M234.39,512a33.76,33.76,0,0,1-33.76,33.76H133.11a33.76,33.76,0,1,1,0-67.52h67.52A33.76,33.76,0,0,1,234.39,512Zm0-216.08a33.76,33.76,0,0,0-33.76-33.76H133.11a33.76,33.76,0,0,0,0,67.52h67.52a33.76,33.76,0,0,0,33.76-33.76Zm0,432.16a33.75,33.75,0,0,0-33.76-33.76H133.11a33.76,33.76,0,0,0,0,67.52h67.52a33.76,33.76,0,0,0,33.76-33.76ZM924.65,181.14V842.86a108,108,0,0,1-108,108H247.9a108,108,0,0,1-108-108v-54h60.77a60.78,60.78,0,0,0,0-121.55H139.86V572.77h60.77a60.77,60.77,0,0,0,0-121.55H139.86V356.69h60.77a60.77,60.77,0,0,0,0-121.54H139.86v-54a108,108,0,0,1,108-108H816.61a108,108,0,0,1,108,108ZM448.33,393.35A104.18,104.18,0,1,0,552.52,289.17,104.18,104.18,0,0,0,448.33,393.35ZM714.57,648A115.76,115.76,0,0,0,598.83,532.25H506.22A115.77,115.77,0,0,0,390.46,648v46.31H714.57Zm0,0"/><rect class="cls-2" width="1024" height="1024"/></g></g></svg>