<svg xmlns="http://www.w3.org/2000/svg" width="1024" height="1024" viewBox="0 0 1024 1024"><defs><style>.cls-1{fill:#3187ef;}.cls-2{fill:none;}</style></defs><title>Asset 82</title><g id="Layer_2" data-name="Layer 2"><g id="Layer_1-2" data-name="Layer 1"><path class="cls-1" d="M414.2,346.38l64.92-64.9V634.65a33,33,0,1,0,65.93,0V281.48l64.84,64.85A32.31,32.31,0,0,0,633,356.07c9.62.47,17.15-3.39,23.44-9.69a32.9,32.9,0,0,0,0-46.63L535.31,178.62c-12.61-12.55-34.89-12.1-46.45,0L367.77,299.73a32.86,32.86,0,0,0,0,46.65C380.24,358.87,402.58,358.48,414.2,346.38Z"/><path class="cls-1" d="M847.5,580.79h0a30.5,30.5,0,0,0-30.5,30.5V747.87a45.88,45.88,0,0,1-45.75,45.75H252.75A45.88,45.88,0,0,1,207,747.87V611.29a30.49,30.49,0,0,0-30.5-30.5h0a30.5,30.5,0,0,0-30.5,30.5V747.87A106.75,106.75,0,0,0,252.75,854.63h518.5A106.75,106.75,0,0,0,878,747.87V611.29A30.5,30.5,0,0,0,847.5,580.79Z"/><rect class="cls-2" width="1024" height="1024"/></g></g></svg>