<svg xmlns="http://www.w3.org/2000/svg" width="1024" height="1024" viewBox="0 0 1024 1024"><defs><style>.cls-1{fill:#39b54a;}.cls-2{fill:none;}</style></defs><title>Asset 85</title><g id="Layer_2" data-name="Layer 2"><g id="Layer_1-2" data-name="Layer 1"><path class="cls-1" d="M512,21.62C241.6,21.62,21.61,241.6,21.61,512s220,490.38,490.38,490.38,490.39-220,490.39-490.38S782.4,21.62,512,21.62Zm0,941.45C263.28,963.07,60.93,760.72,60.93,512S263.28,60.93,512,60.93,963.07,263.29,963.07,512,760.72,963.07,512,963.07Z"/><path class="cls-1" d="M716.7,344.72a28.42,28.42,0,0,0-20.22,8.37L439.32,610.24,327.51,498.42a28.6,28.6,0,0,0-40.44,40.45l132,132a28.61,28.61,0,0,0,40.46,0L736.92,393.55a28.6,28.6,0,0,0-20.22-48.83Z"/><rect class="cls-2" width="1024" height="1024"/></g></g></svg>