<svg xmlns="http://www.w3.org/2000/svg" width="1024" height="1024" viewBox="0 0 1024 1024"><defs><style>.cls-1{fill:none;}.cls-2{fill:#fff;}</style></defs><title>Asset 51</title><g id="Layer_2" data-name="Layer 2"><g id="Layer_1-2" data-name="Layer 1"><rect class="cls-1" width="1024" height="1024"/><path class="cls-2" d="M984.78,491.58,806.29,223.83a81.07,81.07,0,0,0-67.45-36.1H285.16a81.07,81.07,0,0,0-67.45,36.1L39.22,491.58a81.06,81.06,0,0,0-13.62,45V755.2a81.07,81.07,0,0,0,81.07,81.07H917.33A81.07,81.07,0,0,0,998.4,755.2V536.54a81.06,81.06,0,0,0-13.62-45ZM299.63,295.82H724.38L868.49,512H660.62l-54,108.09H417.42L363.38,512H155.51Z"/></g></g></svg>