<svg xmlns="http://www.w3.org/2000/svg" width="1024" height="1024" viewBox="0 0 1024 1024"><defs><style>.cls-1{fill:#073763;}.cls-2{fill:none;}</style></defs><title>Asset 61</title><g id="Layer_2" data-name="Layer 2"><g id="Layer_1-2" data-name="Layer 1"><path class="cls-1" d="M499.41,69.65c-175.86,6.17-322,143.37-338.84,318.5a355.44,355.44,0,0,0,4.72,101.45s.55,3.81,2.36,11.07a353.89,353.89,0,0,0,23.77,70.05c35.39,83.84,117.24,224.13,300.91,376.76a30.66,30.66,0,0,0,39.2,0C715.19,795,797,654.76,832.62,570.55a339.32,339.32,0,0,0,23.77-70.05c1.64-7.08,2.36-11.08,2.36-11.08a355.3,355.3,0,0,0,6.35-67c0-199.27-165-359.89-365.69-352.81Zm12.52,528.48a171.5,171.5,0,1,1,171.5-171.5,171.48,171.48,0,0,1-171.5,171.5Zm0,0"/><rect class="cls-2" width="1024" height="1024"/></g></g></svg>