<svg xmlns="http://www.w3.org/2000/svg" width="1024" height="1024" viewBox="0 0 1024 1024"><defs><style>.cls-1{fill:#666;}.cls-2{fill:none;}</style></defs><title>Asset 84</title><g id="Layer_2" data-name="Layer 2"><g id="Layer_1-2" data-name="Layer 1"><path class="cls-1" d="M898.79,364.32c-21.15-28.86-50.69-62.67-83.1-95s-66.17-61.93-95-83.07C671.52,150.13,647.64,146,634,146H283.24A76.33,76.33,0,0,0,207,222.25v701.5A76.34,76.34,0,0,0,283.24,1000h579.5A76.35,76.35,0,0,0,939,923.75V451C939,437.33,934.83,413.46,898.79,364.32Zm-203.85-121c21.92,17,48.31,39.91,77.51,69.19h.12c29.25,29.28,52.18,55.64,69.17,77.53H694.93ZM878,923.75A15.43,15.43,0,0,1,862.75,939H283.24A15.44,15.44,0,0,1,268,923.75V222.25A15.48,15.48,0,0,1,283.24,207H634V420.5A30.49,30.49,0,0,0,664.5,451H878Z"/><path class="cls-1" d="M598.62,64.21h.05C549.53,28.13,525.64,24,512,24H161.25A76.34,76.34,0,0,0,85,100.25v701.5a76.36,76.36,0,0,0,61,74.73V100.25A15.51,15.51,0,0,1,161.25,85h464C616.07,77.44,607.14,70.46,598.62,64.21Z"/><path class="cls-1" d="M435.82,632.4a21.27,21.27,0,1,0-30.08,30.07l98.18,98.19a21.28,21.28,0,0,0,30.09,0L740.25,554.41a21.27,21.27,0,0,0-30.08-30.08L519,715.53Z"/><rect class="cls-2" width="1024" height="1024"/></g></g></svg>