<svg xmlns="http://www.w3.org/2000/svg" width="1024" height="1024" viewBox="0 0 1024 1024"><defs><style>.cls-1{fill:#073763;}.cls-2{fill:none;}</style></defs><title>Asset 65</title><g id="Layer_2" data-name="Layer 2"><g id="Layer_1-2" data-name="Layer 1"><path class="cls-1" d="M805.4,218.59C727,140.24,622.84,97.09,512,97.09s-215,43.15-293.4,121.5S97.09,401.16,97.09,512,140.24,727,218.6,805.4,401.16,926.91,512,926.91,727,883.75,805.4,805.4,926.91,622.82,926.91,512,883.76,297,805.4,218.59ZM823.18,512a309.76,309.76,0,0,1-57.61,180.23l-433.8-433.8A309.76,309.76,0,0,1,512,200.82C683.57,200.82,823.18,340.43,823.18,512Zm-622.36,0a309.74,309.74,0,0,1,57.61-180.23l433.8,433.8A309.73,309.73,0,0,1,512,823.18C340.43,823.18,200.82,683.57,200.82,512Z"/><rect class="cls-2" width="1024" height="1024"/></g></g></svg>