<svg xmlns="http://www.w3.org/2000/svg" width="1024" height="1024" viewBox="0 0 1024 1024"><defs><style>.cls-1{fill:#073763;}.cls-2{fill:none;}</style></defs><title>Asset 71</title><g id="Layer_2" data-name="Layer 2"><g id="Layer_1-2" data-name="Layer 1"><path class="cls-1" d="M442.85,235.42a322.37,322.37,0,0,0-104.72,17c-31,10.6-58.44,25.53-81.76,44.39-43.27,35-67.08,79.8-67.08,126.19,0,25.89,7.25,51.1,21.52,74.8,14.9,24.76,37.41,47.38,65,65.51a92.12,92.12,0,0,1,40.61,63.34c.68,4.34,1.17,8.67,1.58,13,2-1.8,3.92-3.69,5.85-5.63a92.15,92.15,0,0,1,65.06-26.88,90.3,90.3,0,0,1,11.57.75,340.87,340.87,0,0,0,42.32,2.66,323.46,323.46,0,0,0,104.76-17C578.5,583,606,568,629.32,549.16c43.27-35,67.08-79.77,67.08-126.15s-23.82-91.21-67.08-126.19C606,277.92,578.5,263,547.57,252.43a322.85,322.85,0,0,0-104.76-17Zm0-92.2h0c190.93,0,345.76,125.25,345.76,279.8S633.78,702.78,442.85,702.78a422.74,422.74,0,0,1-53.89-3.4c-74.29,74-160,87.23-245.77,89.21V770.46c46.28-22.58,83.6-63.7,83.6-110.73a130.36,130.36,0,0,0-1.48-19.32C147.11,589.1,97.09,510.76,97.09,422.95c0-154.53,154.83-279.78,345.76-279.78ZM814.58,770.37c0,40.29,26.11,75.56,66.27,94.93v15.53c-74.29-1.67-142.45-13.06-206.87-76.44a379.14,379.14,0,0,1-46.69,2.9c-68.79,0-132.14-18.53-182.69-49.73,104.22-.38,202.59-33.76,277.19-94.13C759.43,633,789.06,597.27,810,557.29c22.19-42.41,33.4-87.59,33.4-134.27,0-7.52-.36-15-.94-22.47,52.27,43.15,84.46,102,84.46,166.89,0,75.27-43.35,142.4-111.11,186.39A111.65,111.65,0,0,0,814.58,770.37Z"/><rect class="cls-2" width="1024" height="1024"/></g></g></svg>