<svg xmlns="http://www.w3.org/2000/svg" xmlns:xlink="http://www.w3.org/1999/xlink" viewBox="0 0 496.3 496.3"><defs><style>.cls-1,.cls-16,.cls-28,.cls-7{fill:none;}.cls-2,.cls-27{fill:#007aff;}.cls-15,.cls-2,.cls-28{opacity:0.5;}.cls-22,.cls-3{fill:#fff;}.cls-4{fill:#d7edff;}.cls-5{fill:#e5e5e5;}.cls-16,.cls-22,.cls-5,.cls-7{stroke:#204f80;stroke-miterlimit:10;}.cls-22,.cls-5,.cls-7{stroke-width:5px;}.cls-6{fill:#ffba1f;}.cls-8{clip-path:url(#clip-path);}.cls-9{fill:#f78319;}.cls-10{fill:#fedac6;}.cls-11{fill:#f5c4b0;}.cls-12{fill:#dbdbdb;}.cls-13{fill:#bfbfbf;}.cls-14,.cls-15{fill:#204f80;}.cls-16{stroke-width:2px;}.cls-17{clip-path:url(#clip-path-2);}.cls-18{fill:#a15d30;}.cls-19{fill:#8f4f24;}.cls-20{fill:#f288b7;}.cls-21{fill:#ed7bb2;}.cls-23{clip-path:url(#clip-path-3);}.cls-24{fill:#2e6aa3;}.cls-25{fill:#ebebeb;}.cls-26{fill:#215280;}</style><clipPath id="clip-path" transform="translate(0 -1.25)"><ellipse class="cls-1" cx="401.74" cy="42.99" rx="39.87" ry="42.99"/></clipPath><clipPath id="clip-path-2" transform="translate(0 -1.25)"><ellipse class="cls-1" cx="117.24" cy="107.41" rx="47.98" ry="49.32"/></clipPath><clipPath id="clip-path-3" transform="translate(0 -1.25)"><ellipse class="cls-1" cx="284.47" cy="166.94" rx="62.56" ry="66.99"/></clipPath></defs><title>Pantalla2</title><g id="Layer_2" data-name="Layer 2"><g id="Layer_1-2" data-name="Layer 1"><circle class="cls-2" cx="248.43" cy="225.27" r="224.55"/><rect class="cls-3" x="368.37" y="341.25" width="96.93" height="11.06" rx="5.53" ry="5.53" transform="translate(833.67 692.31) rotate(180)"/><rect class="cls-3" x="368.37" y="366.94" width="127.93" height="11.06" rx="5.53" ry="5.53" transform="translate(864.67 743.69) rotate(-180)"/><path id="Rectangulo_blanco" class="cls-4" d="M467.71,214.82H340.55c-8,0-14.48-5.5-14.48-12.28V47c0-6.78,6.48-12.28,14.48-12.28H467.71c8,0,14.48,5.5,14.48,12.28V202.54C482.19,209.32,475.71,214.82,467.71,214.82Z" transform="translate(0 -1.25)"/><path id="Rectangulo_blanco-2" data-name="Rectangulo_blanco" class="cls-5" d="M467.71,214.82H340.55c-8,0-14.48-5.5-14.48-12.28V47c0-6.78,6.48-12.28,14.48-12.28H467.71c8,0,14.48,5.5,14.48,12.28V202.54C482.19,209.32,475.71,214.82,467.71,214.82Z" transform="translate(0 -1.25)"/><circle class="cls-6" cx="401.99" cy="50.07" r="36.18"/><circle class="cls-7" cx="401.99" cy="50.07" r="36.18"/><g class="cls-8"><path class="cls-9" d="M419.65,60.24l-7-1a2.92,2.92,0,0,1-1.49-.65l-8.42,10.63-8.42-10.68a3.13,3.13,0,0,1-1.53.7l-7,1c-4.76.71-8.31,5.1-8.31,10.28V84.78H428V70.52C428,65.33,424.43,60.93,419.65,60.24Z" transform="translate(0 -1.25)"/><path class="cls-10" d="M411.16,58.6a3.45,3.45,0,0,1-1.2-2.67V49.78H395.53v6.14a3.48,3.48,0,0,1-1.2,2.59l8.42,10.71Z" transform="translate(0 -1.25)"/><path class="cls-11" d="M410,57V49.78H395.53V57C400.94,59.49,404.55,59.49,410,57Z" transform="translate(0 -1.25)"/><rect class="cls-10" x="382.3" y="77.05" width="4.81" height="6.48"/><rect class="cls-11" x="377.49" y="77.05" width="4.81" height="6.48"/><rect class="cls-10" x="418.38" y="77.05" width="9.62" height="6.48"/><path class="cls-10" d="M390.72,45.36a15.2,15.2,0,0,1-1.2-6V22.56h0a5,5,0,0,1,4.81-5.19h2.41l.41.65a6.63,6.63,0,0,0,5.6,3.24h0a6.63,6.63,0,0,0,5.6-3.24l.41-.65h2.4A5,5,0,0,1,416,22.56h0V39.41c0,7.88-5.92,14.26-13.23,14.26h0a13,13,0,0,1-10.82-6.05" transform="translate(0 -1.25)"/><path class="cls-11" d="M394.33,35.07V17.37a5,5,0,0,0-4.81,5.19V39.41a15.2,15.2,0,0,0,1.2,6l1.2,2.26a13.14,13.14,0,0,0,8.79,5.87l-3.08-5.55A26.49,26.49,0,0,1,394.33,35.07Z" transform="translate(0 -1.25)"/><path class="cls-12" d="M389.52,29V22.56a5,5,0,0,1,4.81-5.19h2.41l.41.65a6.43,6.43,0,0,0,9.32,2,7,7,0,0,0,1.89-2l.41-.65h2.4A5,5,0,0,1,416,22.56V29h1.2a3.47,3.47,0,0,1,2.4,1l.49-5.82a10.41,10.41,0,0,0-6.51-10.76,11.76,11.76,0,0,0-9.62-5.19h-2.41a11.76,11.76,0,0,0-9.62,5.19,10.41,10.41,0,0,0-6.53,10.76l.52,5.82a3.47,3.47,0,0,1,2.41-1Z" transform="translate(0 -1.25)"/><path class="cls-10" d="M417.17,29H416v7.78h1.2a3.9,3.9,0,0,0,0-7.78Z" transform="translate(0 -1.25)"/><path class="cls-11" d="M384.71,32.93a3.76,3.76,0,0,0,3.61,3.89h1.2V29h-1.2A3.76,3.76,0,0,0,384.71,32.93Z" transform="translate(0 -1.25)"/><path class="cls-12" d="M390.72,47.19h4.81a6.26,6.26,0,0,0,6-6.48h-4.81A6.26,6.26,0,0,0,390.72,47.19Z" transform="translate(0 -1.25)"/><path class="cls-12" d="M412.36,47.19h-4.81a6.26,6.26,0,0,1-6-6.48h4.81A6.26,6.26,0,0,1,412.36,47.19Z" transform="translate(0 -1.25)"/><path class="cls-13" d="M391.92,13.48a10.41,10.41,0,0,0-6.53,10.76l.52,5.82a3.47,3.47,0,0,1,2.41-1h1.2V22.56a5,5,0,0,1,4.81-5.19V10.89A12.38,12.38,0,0,0,391.92,13.48Z" transform="translate(0 -1.25)"/><path class="cls-13" d="M396.86,44.6h-5.64a6.83,6.83,0,0,0-.51,2.59h4.81a6,6,0,0,0,5.53-3.89A7.19,7.19,0,0,1,396.86,44.6Z" transform="translate(0 -1.25)"/><path class="cls-13" d="M406.22,44.6h5.64a6.83,6.83,0,0,1,.51,2.59h-4.81A6,6,0,0,1,402,43.3,7.19,7.19,0,0,0,406.22,44.6Z" transform="translate(0 -1.25)"/><path class="cls-14" d="M417.17,38.11H416V35.52h1.2a2.6,2.6,0,0,0,0-5.19H416V27.74h1.2A5,5,0,0,1,422,32.93,5,5,0,0,1,417.17,38.11Z" transform="translate(0 -1.25)"/><path class="cls-14" d="M389.52,38.11h-1.2a5,5,0,0,1-4.81-5.19,5,5,0,0,1,4.81-5.19h1.2v2.59h-1.2a2.6,2.6,0,0,0,0,5.19h1.2v2.59Z" transform="translate(0 -1.25)"/><path class="cls-14" d="M395.53,48.48h-4.81a1.25,1.25,0,0,1-1.2-1.3,7.52,7.52,0,0,1,7.21-7.78h4.81a1.25,1.25,0,0,1,1.2,1.3A7.52,7.52,0,0,1,395.53,48.48Zm-3.46-2.59h3.46A4.9,4.9,0,0,0,400.19,42h-3.46A4.9,4.9,0,0,0,392.07,45.89Z" transform="translate(0 -1.25)"/><path class="cls-14" d="M412.36,48.48h-4.81a7.52,7.52,0,0,1-7.21-7.78,1.25,1.25,0,0,1,1.2-1.3h4.81a7.52,7.52,0,0,1,7.21,7.78A1.25,1.25,0,0,1,412.36,48.48ZM402.9,42a4.9,4.9,0,0,0,4.66,3.89H411A4.9,4.9,0,0,0,406.35,42Z" transform="translate(0 -1.25)"/><path class="cls-14" d="M402.74,55a14.16,14.16,0,0,1-11.8-6.6l2-1.49a11.8,11.8,0,0,0,9.83,5.5h0c6.63,0,12-5.82,12-13V22.56a3.76,3.76,0,0,0-3.61-3.89h-1.77l-.05.08a7.62,7.62,0,0,1-13.2,0l0-.07h-1.77a3.76,3.76,0,0,0-3.61,3.89V39.41a13.9,13.9,0,0,0,1.09,5.41l-2.19,1.08a16.69,16.69,0,0,1-1.31-6.49V22.56a6.27,6.27,0,0,1,6-6.48h2.41a1.18,1.18,0,0,1,1,.57l.41.65a5.31,5.31,0,0,0,9.21,0l.41-.66a1.18,1.18,0,0,1,1-.57h2.4a6.27,6.27,0,0,1,6,6.48V39.41C417.17,48,410.7,55,402.74,55Z" transform="translate(0 -1.25)"/><path class="cls-14" d="M384.71,30.45l-.52-6.09a11.71,11.71,0,0,1,7-12A13,13,0,0,1,401.54,7h2.41a13,13,0,0,1,10.35,5.39,11.71,11.71,0,0,1,7,12l-.52,6.1-2.4-.24.52-6.09a9.08,9.08,0,0,0-5.71-9.41,1.21,1.21,0,0,1-.58-.45,10.63,10.63,0,0,0-8.66-4.67h-2.41a10.63,10.63,0,0,0-8.66,4.67,1.21,1.21,0,0,1-.58.45,9.08,9.08,0,0,0-5.71,9.42l.52,6.09Z" transform="translate(0 -1.25)"/><path class="cls-14" d="M378.69,84.78h-2.4V70.52c0-5.82,4-10.79,9.39-11.56l7-1a2,2,0,0,0,1.65-2V51.08h2.41v4.85a4.57,4.57,0,0,1-3.73,4.6l-7,1a8.9,8.9,0,0,0-7.3,9V84.78Z" transform="translate(0 -1.25)"/><path class="cls-14" d="M429.2,84.78h-2.4V70.52a8.9,8.9,0,0,0-7.3-9l-7-1a4.57,4.57,0,0,1-3.74-4.6V51.08h2.4v4.85a2,2,0,0,0,1.65,2l7,1c5.35.77,9.39,5.74,9.39,11.56Z" transform="translate(0 -1.25)"/><rect class="cls-14" x="385.91" y="73.16" width="2.41" height="10.37"/><rect class="cls-14" x="417.17" y="73.16" width="2.4" height="10.37"/><path class="cls-14" d="M402.74,70.52a1.16,1.16,0,0,1-.9-.44l-8.42-10.37L395.23,58l7.51,9.25L410.26,58l1.81,1.71-8.42,10.37A1.16,1.16,0,0,1,402.74,70.52Z" transform="translate(0 -1.25)"/><path class="cls-14" d="M395.53,71.82a1.2,1.2,0,0,1-1.1-.77l-4.81-11.67,2.2-1.05,4.43,10.75,6.3-1.13.4,2.56-7.21,1.3Z" transform="translate(0 -1.25)"/><path class="cls-14" d="M410,71.82l-.2,0-7.21-1.3.4-2.56,6.3,1.13,4.43-10.75,2.2,1.05L411.06,71A1.21,1.21,0,0,1,410,71.82Z" transform="translate(0 -1.25)"/><rect class="cls-14" x="401.54" y="67.98" width="2.41" height="15.56"/><path class="cls-14" d="M388.31,84.78h-2.41V79.6h-7.21v5.19h-2.4V78.3a1.25,1.25,0,0,1,1.2-1.3h9.62a1.25,1.25,0,0,1,1.2,1.3v6.48Z" transform="translate(0 -1.25)"/><path class="cls-14" d="M429.2,84.78h-2.4V79.6h-7.21v5.19h-2.4V78.3a1.25,1.25,0,0,1,1.2-1.3H428a1.25,1.25,0,0,1,1.2,1.3Z" transform="translate(0 -1.25)"/><path class="cls-14" d="M398.53,77a1.95,1.95,0,1,1,1.8-1.94A1.88,1.88,0,0,1,398.53,77Zm0-2.59a.65.65,0,1,0,.6.65A.63.63,0,0,0,398.53,74.41Z" transform="translate(0 -1.25)"/></g><rect class="cls-14" x="356.57" y="92.86" width="92.49" height="4.06" rx="2.03" ry="2.03"/><rect class="cls-14" x="375.33" y="99.45" width="57.6" height="4.06" rx="2.03" ry="2.03"/><rect class="cls-15" x="342.83" y="147.32" width="126.74" height="3.33" rx="1.67" ry="1.67"/><rect class="cls-15" x="342.83" y="154.39" width="76.3" height="3.33" rx="1.67" ry="1.67"/><rect class="cls-15" x="342.83" y="114.66" width="126.74" height="3.33" rx="1.67" ry="1.67"/><rect class="cls-15" x="342.83" y="121.73" width="76.3" height="3.33" rx="1.67" ry="1.67"/><rect class="cls-15" x="342.83" y="131.46" width="126.74" height="3.33" rx="1.67" ry="1.67"/><rect class="cls-15" x="342.83" y="138.54" width="76.3" height="3.33" rx="1.67" ry="1.67"/><rect class="cls-15" x="342.83" y="162.67" width="126.74" height="3.33" rx="1.67" ry="1.67"/><rect class="cls-15" x="342.83" y="169.74" width="76.3" height="3.33" rx="1.67" ry="1.67"/><rect class="cls-15" x="453.25" y="182.1" width="16.33" height="16.33" rx="6" ry="6"/><path class="cls-16" d="M345.65,195.23c2.13-3.72,5.06-9.51,8.25-5s3.93,9.71,6,9.48,3.06-4.33,5.46-5.55,4,1.51,4.79,2.75" transform="translate(0 -1.25)"/><path id="Rectangulo_blanco-3" data-name="Rectangulo_blanco" class="cls-4" d="M198.42,315.59H42.31c-9.82,0-17.77-6.75-17.77-15.07v-191c0-8.32,8-15.07,17.77-15.07H198.42c9.82,0,17.77,6.75,17.77,15.07v191C216.19,308.84,208.24,315.59,198.42,315.59Z" transform="translate(0 -1.25)"/><path id="Rectangulo_blanco-4" data-name="Rectangulo_blanco" class="cls-5" d="M198.42,315.59H42.31c-9.82,0-17.77-6.75-17.77-15.07v-191c0-8.32,8-15.07,17.77-15.07H198.42c9.82,0,17.77,6.75,17.77,15.07v191C216.19,308.84,208.24,315.59,198.42,315.59Z" transform="translate(0 -1.25)"/><rect class="cls-14" x="61.98" y="166.16" width="113.54" height="4.98" rx="2.06" ry="2.06"/><rect class="cls-14" x="85.02" y="174.24" width="70.7" height="4.98" rx="2.06" ry="2.06"/><rect class="cls-15" x="45.12" y="233.01" width="155.59" height="4.09" rx="1.69" ry="1.69"/><rect class="cls-15" x="45.12" y="241.69" width="93.67" height="4.09" rx="1.69" ry="1.69"/><rect class="cls-15" x="45.12" y="192.91" width="155.59" height="4.09" rx="1.69" ry="1.69"/><rect class="cls-15" x="45.12" y="201.6" width="93.67" height="4.09" rx="1.69" ry="1.69"/><rect class="cls-15" x="45.12" y="213.55" width="155.59" height="4.09" rx="1.69" ry="1.69"/><rect class="cls-15" x="45.12" y="222.23" width="93.67" height="4.09" rx="1.69" ry="1.69"/><rect class="cls-15" x="45.12" y="251.85" width="155.59" height="4.09" rx="1.69" ry="1.69"/><rect class="cls-15" x="45.12" y="260.53" width="93.67" height="4.09" rx="1.69" ry="1.69"/><rect class="cls-15" x="180.66" y="275.71" width="20.05" height="20.05" rx="6" ry="6"/><path class="cls-16" d="M48.58,291.53c2.61-4.57,6.21-11.68,10.13-6.17s4.83,11.92,7.35,11.64,3.76-5.31,6.7-6.82,4.9,1.86,5.88,3.38" transform="translate(0 -1.25)"/><circle class="cls-6" cx="118.75" cy="113.96" r="44.08"/><circle class="cls-7" cx="117.24" cy="113.33" r="44.08"/><g class="cls-17"><path class="cls-18" d="M136.82,128.32c3.06-9.45,3.06-36.21,3.06-36.21,0-18.89-6.13-26.77-21.44-26.77h0c-8.15,0-16.74,2.58-19.91,12.6-3.06,9.45-4.59,33.06,3.06,50.38a18.65,18.65,0,0,0,16.85,9.45A22.77,22.77,0,0,0,136.82,128.32Z" transform="translate(0 -1.25)"/><path class="cls-19" d="M107.72,67.4a16.63,16.63,0,0,0-9.19,10.53c-3.06,9.45-4.59,33.06,3.06,50.38A18.66,18.66,0,0,0,118,137.76C108.54,120.21,107.72,81.44,107.72,67.4Z" transform="translate(0 -1.25)"/><rect class="cls-10" x="92.4" y="144.39" width="6.13" height="12.6"/><rect class="cls-11" x="86.27" y="144.39" width="6.13" height="12.6"/><rect class="cls-10" x="138.35" y="144.39" width="12.25" height="12.6"/><path class="cls-20" d="M150.6,138.24a9.36,9.36,0,0,0-8.06-9.45l-10.63-1.37-.67,1.57a13.8,13.8,0,0,1-18.31,7.5,14.15,14.15,0,0,1-7.3-7.5l-.67-1.57-10.63,1.37a9.36,9.36,0,0,0-8.06,9.45v7.4H98.53l-.32.66a27.25,27.25,0,0,0-2.74,11.93h45.95a27.25,27.25,0,0,0-2.74-11.93l-.32-.66H150.6v-7.4Z" transform="translate(0 -1.25)"/><path class="cls-21" d="M92.4,129.34a9.44,9.44,0,0,0-6.13,8.9v7.4H92.4Z" transform="translate(0 -1.25)"/><path class="cls-10" d="M118.44,137.76a13.92,13.92,0,0,0,12.8-8.68l.67-1.57-3.06-.39a3.12,3.12,0,0,1-2.68-3.15v-8.25H110.78V124a3.12,3.12,0,0,1-2.68,3.15l-3.14.39.67,1.57A13.92,13.92,0,0,0,118.44,137.76Z" transform="translate(0 -1.25)"/><path class="cls-11" d="M126.1,124.44v-8.72H110.78v8.72C116.52,127.51,120.35,127.51,126.1,124.44Z" transform="translate(0 -1.25)"/><path class="cls-10" d="M136.82,90.53h-3.06V100h3.06a4.73,4.73,0,0,0,0-9.45Z" transform="translate(0 -1.25)"/><path class="cls-10" d="M135.29,90.53c-19.91-4.72-27.57-12.6-27.57-12.6L101.59,92.1l.84,11a16.23,16.23,0,0,0,16,15.74h0a16.23,16.23,0,0,0,16-15.74Z" transform="translate(0 -1.25)"/><path class="cls-11" d="M107.72,77.93,101.59,92.1l.84,11c.37,8.44,5.28,12.6,11.41,14.17-2.33-3-3.06-5.45-4.59-9.45C107.41,103.13,107.72,77.93,107.72,77.93Z" transform="translate(0 -1.25)"/><path class="cls-21" d="M97.47,149.67a19.42,19.42,0,0,0-2,8.57H105.7C100.37,155.93,98.27,152.41,97.47,149.67Z" transform="translate(0 -1.25)"/><path class="cls-14" d="M87.81,158.23H84.74v-20a10.92,10.92,0,0,1,9.4-11l13.78-1.76a1.56,1.56,0,0,0,1.34-1.57V117.3h3.06v6.58a4.68,4.68,0,0,1-4,4.71l-13.79,1.76a7.8,7.8,0,0,0-6.71,7.87v20Z" transform="translate(0 -1.25)"/><path class="cls-14" d="M152.15,158.23h-3.06V138.32a7.81,7.81,0,0,0-6.71-7.89l-13.78-1.76a4.68,4.68,0,0,1-4-4.72V117.3h3.06V124a1.56,1.56,0,0,0,1.34,1.59l13.78,1.76a10.92,10.92,0,0,1,9.4,11v19.91Z" transform="translate(0 -1.25)"/><path class="cls-14" d="M136.82,101.55h-1.53V98.4h1.53a3.15,3.15,0,0,0,0-6.3h-1.53V89h1.53a6.3,6.3,0,0,1,0,12.6Z" transform="translate(0 -1.25)"/><path class="cls-14" d="M118.45,139.34h0a15.43,15.43,0,0,1-14.2-9.63l-1-2.34,2.82-1.24,1,2.35a12.38,12.38,0,0,0,11.39,7.72h0a12.37,12.37,0,0,0,11.39-7.72l1-2.35,2.82,1.24-1,2.35A15.43,15.43,0,0,1,118.45,139.34Z" transform="translate(0 -1.25)"/><path class="cls-14" d="M100.2,129c-8.09-18.29-6-42.59-3.12-51.53s10.22-13.67,21.36-13.67c16.1,0,23,8.48,23,28.34h-3.06c0-18.13-5.58-25.19-19.91-25.19-9.83,0-16,3.87-18.45,11.51-2.77,8.55-4.73,31.75,3,49.24Z" transform="translate(0 -1.25)"/><path class="cls-14" d="M118.44,120.45a17.74,17.74,0,0,1-17.54-17.25l-.84-11a1.63,1.63,0,0,1,.13-.76l6.13-14.17a1.54,1.54,0,0,1,1.12-.91,1.5,1.5,0,0,1,1.36.43c.07.07,7.68,7.63,26.83,12.17a1.57,1.57,0,0,1,1.18,1.64l-.84,12.6A17.73,17.73,0,0,1,118.44,120.45ZM103.15,92.38,104,103a14.48,14.48,0,0,0,29,.06l.76-11.3c-14.39-3.6-22.23-8.77-25.38-11.26Z" transform="translate(0 -1.25)"/><path class="cls-14" d="M138.29,128.75l-2.95-.86c3-10.68,3-29.3,3-29.48h3.06C141.41,99.18,141.38,117.64,138.29,128.75Z" transform="translate(0 -1.25)"/><path class="cls-14" d="M93.93,158.23a29,29,0,0,1,2.9-12.64l.16-.33v-4.35h3.06v4.72a1.61,1.61,0,0,1-.16.7l-.32.66A25.79,25.79,0,0,0,97,158.23Z" transform="translate(0 -1.25)"/><rect class="cls-14" x="86.27" y="142.82" width="12.25" height="3.15"/><rect class="cls-14" x="138.35" y="142.82" width="12.25" height="3.15"/><path class="cls-14" d="M142.95,158.23h-3.06A25.75,25.75,0,0,0,137.3,147l-.32-.66a1.62,1.62,0,0,1-.16-.7v-4.72h3.06v4.35l.16.33A29,29,0,0,1,142.95,158.23Z" transform="translate(0 -1.25)"/></g><path id="Rectangulo_blanco-5" data-name="Rectangulo_blanco" class="cls-4" d="M388.94,437.7H187.58c-12.66,0-22.92-8.7-22.92-19.44V171.89c0-10.74,10.26-19.44,22.92-19.44H388.94c12.66,0,22.92,8.7,22.92,19.44V418.25C411.86,429,401.6,437.7,388.94,437.7Z" transform="translate(0 -1.25)"/><path id="Rectangulo_blanco-6" data-name="Rectangulo_blanco" class="cls-22" d="M388.94,437.7H187.58c-12.66,0-22.92-8.7-22.92-19.44V171.89c0-10.74,10.26-19.44,22.92-19.44H388.94c12.66,0,22.92,8.7,22.92,19.44V418.25C411.86,429,401.6,437.7,388.94,437.7Z" transform="translate(0 -1.25)"/><rect class="cls-14" x="212.94" y="245.31" width="146.45" height="6.43" rx="2.06" ry="2.06"/><rect class="cls-14" x="242.66" y="255.74" width="91.2" height="6.43" rx="2.06" ry="2.06"/><circle class="cls-6" cx="284.47" cy="177.99" r="56.04"/><circle class="cls-7" cx="284.47" cy="177.99" r="56.04"/><g class="cls-23"><path class="cls-10" d="M309.05,135c-5.9-2.1-9.83-12.63-9.83-12.63-8.18,10.21-26.71,10.31-37.34,9.41v34.79a21,21,0,0,0,3.5,11.66l.73,1.09a18.4,18.4,0,0,0,15.23,8.42h9a18.51,18.51,0,0,0,16.25-10.1h0a21,21,0,0,0,2.48-10.08V135Z" transform="translate(0 -1.25)"/><path class="cls-11" d="M269.74,158V132.13c-2.87,0-5.56-.13-7.86-.34v34.79a21,21,0,0,0,3.5,11.66l.73,1.09a18.71,18.71,0,0,0,11.5,7.85l-.79-1.45A58,58,0,0,1,269.74,158Z" transform="translate(0 -1.25)"/><path class="cls-10" d="M326.74,231.82v-21c0-8.44-5.83-15.57-13.64-16.69l-11.44-1.62a5.34,5.34,0,0,1-4.4-5.39v-5.77H273.67v5.77a5.34,5.34,0,0,1-4.4,5.39l-11.44,1.62c-7.81,1.12-13.64,8.25-13.64,16.69v21Z" transform="translate(0 -1.25)"/><path class="cls-11" d="M298.93,191.08a5.56,5.56,0,0,1-1.67-4v-5.77H273.67v5.77a5.56,5.56,0,0,1-1.67,4A27.76,27.76,0,0,0,298.93,191.08Z" transform="translate(0 -1.25)"/><path class="cls-18" d="M309.05,135V126.6c0-5.81-4.4-10.52-9.83-10.52h0A19.5,19.5,0,0,0,285,109.76h-5.42c-11.66,0-21.62,10.52-25.55,21,0,0,33.41,6.31,45.21-8.42,0,0,3.93,10.52,9.83,12.63" transform="translate(0 -1.25)"/><path class="cls-18" d="M302.21,160.48a3.41,3.41,0,0,1-4.84,1.37,3.65,3.65,0,0,1-1.16-1.16,9.66,9.66,0,0,0-8.1-4.63h-5.31a9.67,9.67,0,0,0-8.1,4.63,3.4,3.4,0,0,1-4.91,1,3.71,3.71,0,0,1-1.08-1.24L261.88,147v19.61a21,21,0,0,0,3.5,11.66l.73,1.09a18.4,18.4,0,0,0,15.23,8.42h9c10.36,0,18.74-9,18.73-20.1V147Z" transform="translate(0 -1.25)"/><path class="cls-10" d="M309.05,135h-2v12.63h2a6.33,6.33,0,0,0,0-12.63Z" transform="translate(0 -1.25)"/><path class="cls-11" d="M256,141.33a6.12,6.12,0,0,0,5.9,6.31h2V135h-2A6.12,6.12,0,0,0,256,141.33Z" transform="translate(0 -1.25)"/><path class="cls-24" d="M313.1,194.09l-11.44-1.62a5,5,0,0,1-1.85-.63l-14.35,21-14.35-21a4.94,4.94,0,0,1-1.85.69l-11.44,1.62c-7.79,1.12-13.61,8.21-13.64,16.63v23.15h82.55V210.78C326.74,202.34,320.91,195.21,313.1,194.09Z" transform="translate(0 -1.25)"/><polygon class="cls-25" points="277.61 201.11 285.47 211.64 293.33 201.11 277.61 201.11"/><rect class="cls-24" x="240.26" y="224.26" width="19.65" height="8.42"/><rect class="cls-24" x="311.02" y="224.26" width="19.65" height="8.42"/><path class="cls-19" d="M273,110.87c-8.73,3.09-15.82,11.51-19,19.93a95.18,95.18,0,0,0,15.72,1.35V126.6A38.12,38.12,0,0,1,273,110.87Z" transform="translate(0 -1.25)"/><path class="cls-19" d="M269.86,161.74a4.1,4.1,0,0,1-1.14-1.26L261.88,147v19.61a21,21,0,0,0,3.5,11.66l.73,1.09a18.71,18.71,0,0,0,11.5,7.85l-.79-1.45A57.92,57.92,0,0,1,269.86,161.74Z" transform="translate(0 -1.25)"/><rect class="cls-26" x="275.64" y="199.01" width="3.93" height="33.67"/><rect class="cls-26" x="265.81" y="192.7" width="3.93" height="39.99"/><rect class="cls-26" x="255.98" y="192.7" width="3.93" height="39.99"/><rect class="cls-26" x="246.16" y="199.01" width="3.93" height="33.67"/><rect class="cls-26" x="246.16" y="201.11" width="31.45" height="4.21"/><rect class="cls-26" x="244.19" y="211.64" width="41.27" height="4.21"/><rect class="cls-26" x="248.12" y="222.16" width="39.31" height="4.21"/><rect class="cls-26" x="291.36" y="199.01" width="3.93" height="33.67"/><rect class="cls-26" x="301.19" y="192.7" width="3.93" height="39.99"/><rect class="cls-26" x="311.02" y="192.7" width="3.93" height="39.99"/><rect class="cls-26" x="320.84" y="199.01" width="3.93" height="33.67"/><rect class="cls-26" x="293.33" y="201.11" width="31.45" height="4.21"/><rect class="cls-26" x="285.47" y="211.64" width="41.27" height="4.21"/><rect class="cls-26" x="283.5" y="222.16" width="39.31" height="4.21"/><path class="cls-14" d="M309.05,149.75h-2v-4.21h2a4.22,4.22,0,0,0,0-8.42h-2v-4.21h2a8.44,8.44,0,0,1,0,16.84Z" transform="translate(0 -1.25)"/><path class="cls-14" d="M263.85,149.75h-2a8.44,8.44,0,0,1,0-16.84h2v4.21h-2a4.22,4.22,0,0,0,0,8.42h2v4.21Z" transform="translate(0 -1.25)"/><path class="cls-14" d="M290.34,189.86h-9a20.37,20.37,0,0,1-16.83-9.3l-.73-1.1a23.09,23.09,0,0,1-3.86-12.88V130.81h3.93v35.78A18.69,18.69,0,0,0,267,177l.73,1.1a16.5,16.5,0,0,0,13.63,7.53h9a16.6,16.6,0,0,0,14.53-9,18.78,18.78,0,0,0,2.22-9V132.91H311v34.66a23.26,23.26,0,0,1-2.74,11.13A20.51,20.51,0,0,1,290.34,189.86Z" transform="translate(0 -1.25)"/><path class="cls-14" d="M309.05,137.12a1.87,1.87,0,0,1-.62-.11c-4.64-1.66-8.08-7.47-9.8-11-13.66,12.62-43.62,7.14-45,6.89a2,2,0,0,1-1.38-1.05,2.24,2.24,0,0,1-.11-1.81c4.15-11.11,14.89-22.37,27.37-22.37H285A21.19,21.19,0,0,1,300,114c6.12.45,11,5.93,11,12.6V135a2.15,2.15,0,0,1-.82,1.71A1.88,1.88,0,0,1,309.05,137.12Zm-9.83-16.84.32,0a2,2,0,0,1,1.5,1.29c.79,2.09,3.1,7,6,9.73V126.6a8.16,8.16,0,0,0-7.86-8.42,1.9,1.9,0,0,1-1.39-.61,17.48,17.48,0,0,0-12.84-5.7h-5.42c-9.84,0-18.49,8.33-22.69,17.26,7.83,1.08,31.73,3.29,40.85-8.11A1.91,1.91,0,0,1,299.22,120.28Z" transform="translate(0 -1.25)"/><path class="cls-14" d="M299.09,164.48a5.34,5.34,0,0,1-4.51-2.63,7.71,7.71,0,0,0-6.47-3.68h-5.3a7.6,7.6,0,0,0-6.55,3.7,5.36,5.36,0,0,1-4.55,2.61h0a5.5,5.5,0,0,1-4.69-2.95l-6.84-12.85,3.41-2.09,6.84,12.84a1.56,1.56,0,0,0,1.32.83h0a1.5,1.5,0,0,0,1.24-.74,11.59,11.59,0,0,1,9.78-5.58h5.34a11.6,11.6,0,0,1,9.73,5.56,1.5,1.5,0,0,0,1.33.76,1.58,1.58,0,0,0,1.41-.84l6.75-12.82,3.42,2.07L304,161.51a5.47,5.47,0,0,1-4.78,3Z" transform="translate(0 -1.25)"/><path class="cls-14" d="M246.16,225.51h-3.93V210.78c0-9.45,6.6-17.52,15.35-18.77L269,190.38a3.29,3.29,0,0,0,2.7-3.3h3.93a7.44,7.44,0,0,1-6.1,7.47l-11.45,1.62c-6.8,1-11.93,7.25-11.93,14.6v14.73Z" transform="translate(0 -1.25)"/><path class="cls-14" d="M328.71,225.51h-3.93V210.78c0-7.35-5.13-13.63-11.94-14.6l-11.43-1.62a7.43,7.43,0,0,1-6.11-7.47h3.93a3.29,3.29,0,0,0,2.7,3.3L313.36,192c8.75,1.25,15.35,9.33,15.35,18.77Z" transform="translate(0 -1.25)"/><rect class="cls-14" x="257.95" y="215.85" width="3.93" height="16.84"/><rect class="cls-14" x="309.05" y="215.85" width="3.93" height="16.84"/><path class="cls-14" d="M285.47,215a1.93,1.93,0,0,1-1.61-.9L270.1,193l3.22-2.41,12.15,18.58,12.15-18.58,3.22,2.41-13.76,21A1.93,1.93,0,0,1,285.47,215Z" transform="translate(0 -1.25)"/><path class="cls-14" d="M269.74,217.09a1.87,1.87,0,0,1-.77-.17,2.08,2.08,0,0,1-1.17-1.56l-3.93-23.15,3.87-.75,3.4,20,9.3-6.64,2.18,3.5-11.79,8.42A1.89,1.89,0,0,1,269.74,217.09Z" transform="translate(0 -1.25)"/><path class="cls-14" d="M301.19,217.09a1.88,1.88,0,0,1-1.09-.35l-11.79-8.42,2.18-3.5,9.3,6.64,3.4-20,3.87.75-3.93,23.15a2.08,2.08,0,0,1-1.17,1.56A1.81,1.81,0,0,1,301.19,217.09Z" transform="translate(0 -1.25)"/><rect class="cls-14" x="283.5" y="211.64" width="3.93" height="21.05"/><rect class="cls-14" x="277.6" y="199.01" width="15.72" height="4.21"/><path class="cls-14" d="M261.88,233.93h-3.93v-6.31H242.23v6.31H238.3v-8.42a2,2,0,0,1,2-2.1h19.65a2,2,0,0,1,2,2.1v8.42Z" transform="translate(0 -1.25)"/><path class="cls-14" d="M332.64,233.93h-3.93v-6.31H313v6.31h-3.93v-8.42a2,2,0,0,1,2-2.1h19.65a2,2,0,0,1,2,2.1v8.42Z" transform="translate(0 -1.25)"/><path class="cls-14" d="M278.59,223.41a3.16,3.16,0,1,1,2.95-3.16A3.06,3.06,0,0,1,278.59,223.41Zm0-4.21a1.05,1.05,0,1,0,1,1.05A1,1,0,0,0,278.59,219.2Z" transform="translate(0 -1.25)"/></g><rect class="cls-15" x="191.2" y="331.54" width="200.69" height="5.28" rx="1.69" ry="1.69"/><rect class="cls-15" x="191.2" y="342.74" width="120.82" height="5.28" rx="1.69" ry="1.69"/><rect class="cls-15" x="191.2" y="279.82" width="200.69" height="5.28" rx="1.69" ry="1.69"/><rect class="cls-15" x="191.2" y="291.02" width="120.82" height="5.28" rx="1.69" ry="1.69"/><rect class="cls-15" x="191.2" y="306.44" width="200.69" height="5.28" rx="1.69" ry="1.69"/><rect class="cls-15" x="191.2" y="317.64" width="120.82" height="5.28" rx="1.69" ry="1.69"/><rect class="cls-15" x="191.2" y="355.84" width="200.69" height="5.28" rx="1.69" ry="1.69"/><rect class="cls-15" x="191.2" y="367.04" width="120.82" height="5.28" rx="1.69" ry="1.69"/><rect class="cls-27" x="366.03" y="386.61" width="25.86" height="25.86" rx="6" ry="6"/><path class="cls-3" d="M375.81,407.75a1.16,1.16,0,0,1-.88-.42l-5.72-6.56a1.57,1.57,0,0,1,0-2,1.13,1.13,0,0,1,1.75,0l4.85,5.56L387,391.54a1.13,1.13,0,0,1,1.75,0,1.57,1.57,0,0,1,0,2l-12,13.78A1.16,1.16,0,0,1,375.81,407.75Z" transform="translate(0 -1.25)"/><path class="cls-16" d="M195.66,406.67c3.37-5.9,8-15.06,13.07-8s6.22,15.37,9.49,15,4.85-6.85,8.64-8.79,6.32,2.4,7.59,4.36" transform="translate(0 -1.25)"/><rect class="cls-28" width="496.3" height="496.3"/><rect class="cls-2" x="100.16" y="458.69" width="314.33" height="6.6" rx="1.5" ry="1.5"/><rect class="cls-3" x="0.49" y="16.43" width="145.33" height="11.06" rx="5.53" ry="5.53"/><rect class="cls-3" x="47.41" y="42.12" width="98.42" height="11.06" rx="5.53" ry="5.53"/></g></g></svg>