<svg xmlns="http://www.w3.org/2000/svg" xmlns:xlink="http://www.w3.org/1999/xlink" viewBox="0 0 496.3 569.71"><defs><style>.cls-1,.cls-20,.cls-3{fill:none;}.cls-2{isolation:isolate;}.cls-14,.cls-3,.cls-4{opacity:0.5;}.cls-4,.cls-9{fill:#007aff;}.cls-15,.cls-5{fill:#fff;}.cls-22,.cls-6{fill:#f78319;}.cls-7{clip-path:url(#clip-path);}.cls-8{fill:#d7edff;}.cls-10{fill:#204f80;}.cls-11,.cls-13{fill:#d3dde5;}.cls-11,.cls-12{mix-blend-mode:multiply;}.cls-14{fill:#f1f8fe;}.cls-15{opacity:0.2;}.cls-16{fill:#f5737f;}.cls-17{fill:#fafafa;}.cls-18{fill:#39b54a;}.cls-18,.cls-19,.cls-20{stroke:#204f80;stroke-miterlimit:10;stroke-width:7px;}.cls-19{fill:#ffba1f;}.cls-21{fill:#073763;}.cls-22{fill-rule:evenodd;}</style><clipPath id="clip-path" transform="translate(0 -3.59)"><rect class="cls-1" x="51.43" width="388.96" height="463.53"/></clipPath></defs><title>Pantalla4</title><g class="cls-2"><g id="Layer_2" data-name="Layer 2"><g id="Layer_1-2" data-name="Layer 1"><rect class="cls-3" y="1.25" width="496.3" height="496.3"/><circle class="cls-4" cx="248.43" cy="226.52" r="224.55"/><rect class="cls-5" y="239.13" width="145.33" height="11.06" rx="5.53" ry="5.53"/><rect class="cls-5" x="46.92" y="264.82" width="98.42" height="11.06" rx="5.53" ry="5.53"/><rect class="cls-4" x="100.16" y="459.94" width="314.33" height="6.6" rx="1.5" ry="1.5"/><path class="cls-5" d="M419.85,305h0a12.42,12.42,0,0,0-12.42-12.42H391.31a12.42,12.42,0,0,1-12.42-12.42v-2a12.42,12.42,0,0,1,12.42-12.42h92.57a12.42,12.42,0,0,1,12.42,12.42v2a12.42,12.42,0,0,1-12.42,12.42H453.83A12.42,12.42,0,0,0,441.41,305h0a12.42,12.42,0,0,0,12.42,12.42h2a12.42,12.42,0,0,1,12.42,12.42v2a12.42,12.42,0,0,1-12.42,12.42H381.73a12.42,12.42,0,0,1-12.42-12.42v-2a12.42,12.42,0,0,1,12.42-12.42h25.7A12.42,12.42,0,0,0,419.85,305Z" transform="translate(0 -3.59)"/><rect class="cls-6" x="189.48" y="177.63" width="36.59" height="27.01" rx="13.5" ry="13.5"/><g class="cls-7"><polygon class="cls-8" points="385.28 444.43 385.28 455.64 385.28 463.75 385.28 476.05 385.28 483.08 110.86 483.08 110.86 476.05 110.86 463.75 110.86 455.64 110.86 444.43 110.86 110.59 385.28 110.59 385.28 444.43"/><rect class="cls-9" x="110.86" y="110.59" width="274.42" height="46.29"/><rect class="cls-6" x="110.86" y="459.94" width="274.42" height="23.15"/><path class="cls-5" d="M385.28,106.07H110.86V87.21a26,26,0,0,1,26-26h222.4a26,26,0,0,1,26,26Z" transform="translate(0 -3.59)"/><path class="cls-10" d="M248.07,79.58H212.76a4.06,4.06,0,1,0,0,8.11h35.32a4.06,4.06,0,0,0,0-8.11Z" transform="translate(0 -3.59)"/><path class="cls-10" d="M283.39,79.58h-8.83a4.06,4.06,0,1,0,0,8.11h8.83a4.06,4.06,0,0,0,0-8.11Z" transform="translate(0 -3.59)"/><path class="cls-10" d="M248.07,554a23.15,23.15,0,1,0-23.15-23.15A23.17,23.17,0,0,0,248.07,554Zm0-40.15a17,17,0,1,1-17,17A17,17,0,0,1,248.07,513.83Z" transform="translate(0 -3.59)"/><path class="cls-5" d="M385.28,539.18a26,26,0,0,1-26,26H136.87a26,26,0,0,1-26-26V494.79H385.28Z" transform="translate(0 -3.59)"/><polygon class="cls-11" points="385.28 444.43 385.28 455.64 385.28 463.75 385.28 476.05 385.28 483.08 365.18 483.08 365.18 476.05 365.18 463.75 365.18 455.64 365.18 444.43 365.18 110.59 385.28 110.59 385.28 444.43"/><path class="cls-10" d="M248.07,79.58H212.76a4.06,4.06,0,1,0,0,8.11h35.32a4.06,4.06,0,0,0,0-8.11Z" transform="translate(0 -3.59)"/><path class="cls-10" d="M283.39,79.58h-8.83a4.06,4.06,0,1,0,0,8.11h8.83a4.06,4.06,0,0,0,0-8.11Z" transform="translate(0 -3.59)"/><path class="cls-10" d="M248.07,554a23.15,23.15,0,1,0-23.15-23.15A23.17,23.17,0,0,0,248.07,554Zm0-40.15a17,17,0,1,1-17,17A17,17,0,0,1,248.07,513.83Z" transform="translate(0 -3.59)"/><path class="cls-10" d="M359.28,53.09H136.87a34.16,34.16,0,0,0-34.12,34.12v452a34.16,34.16,0,0,0,34.12,34.13h222.4a34.16,34.16,0,0,0,34.13-34.12v-452A34.16,34.16,0,0,0,359.28,53.09Zm26,486.09a26,26,0,0,1-26,26H136.87a26,26,0,0,1-26-26V494.79H385.28Zm0-91.16v38.66H110.86V114.18H385.28Zm0-342H110.86V87.21a26,26,0,0,1,26-26h222.4a26,26,0,0,1,26,26Z" transform="translate(0 -3.59)"/><g class="cls-12"><path class="cls-13" d="M365.18,61.91v44.16h20.1V87.21A26,26,0,0,0,365.18,61.91Z" transform="translate(0 -3.59)"/></g><g class="cls-12"><path class="cls-13" d="M365.18,565.19v-70.4h20.1v45.09A26,26,0,0,1,365.18,565.19Z" transform="translate(0 -3.59)"/></g><rect class="cls-10" x="110.62" y="156.28" width="274.66" height="10.14"/><rect class="cls-10" x="110.62" y="449.8" width="274.66" height="10.14"/><rect class="cls-14" x="200.9" y="128.96" width="92.27" height="9.55" rx="2" ry="2"/><rect class="cls-15" x="206.38" y="459.94" width="86.86" height="22.77"/><circle class="cls-5" cx="154.05" cy="470.97" r="4.77"/><circle class="cls-6" cx="249.81" cy="470.97" r="4.77"/><circle class="cls-5" cx="341.29" cy="470.97" r="4.77"/></g><path class="cls-16" d="M188.45,22a48.81,48.81,0,0,0-61.52,0c-16.7,13.7-23.87,39.23-17.64,59.77,7.14,23.58,28.76,42.5,47.09,57.6l1.31,1.07,1.31-1.07c18.06-14.89,38.49-31.85,46.29-54.76C212.45,63.56,205.83,36.27,188.45,22Z" transform="translate(0 -3.59)"/><path class="cls-17" d="M178.75,61.57a21.06,21.06,0,1,1-21.06-21.06A21.06,21.06,0,0,1,178.75,61.57Z" transform="translate(0 -3.59)"/><path class="cls-10" d="M95.76,236.88h42.07c9.63,0,9.65-15,0-15H95.76a36.79,36.79,0,0,1,0-73.58H157.6a7.48,7.48,0,0,0,6.07-3.11l.12-.1c10.63-8.74,21.31-17.54,30.38-27.89s16.53-22.43,19.67-35.83c3.24-13.81,1.43-28.79-4.06-41.8-4.52-10.72-11.52-20.58-21.34-27A55.68,55.68,0,0,0,151,4.06a59.35,59.35,0,0,0-40,24.39,63.72,63.72,0,0,0-10.68,45.8c2.24,15,9.64,28.8,19.2,40.53a158,158,0,0,0,18.08,18.5H95.76a51.8,51.8,0,0,0,0,103.59ZM116.46,79.6c-5.44-17.95,1.1-40.21,15.22-51.79a41.11,41.11,0,0,1,51.94-.06l.13.11c14.42,11.89,20.75,35.73,14.43,54.33-6.69,19.66-24.17,35-40.49,48.52C140.43,116.3,122.46,99.4,116.46,79.6Z" transform="translate(0 -3.59)"/><path class="cls-10" d="M186.25,61.57a28.56,28.56,0,1,0-28.56,28.57A28.6,28.6,0,0,0,186.25,61.57Zm-42.13,0a13.56,13.56,0,1,1,13.56,13.56A13.58,13.58,0,0,1,144.12,61.57Z" transform="translate(0 -3.59)"/><circle class="cls-18" cx="182.28" cy="223.08" r="32.69"/><circle class="cls-19" cx="182.28" cy="374.99" r="32.69"/><line class="cls-20" x1="182.28" y1="255.77" x2="182.28" y2="342.3"/><line class="cls-20" x1="182.28" y1="407.42" x2="182.28" y2="457.18"/><rect class="cls-10" x="223.65" y="215.14" width="132.77" height="5.3" rx="2.22" ry="2.22"/><rect class="cls-10" x="223.65" y="228.04" width="101.45" height="5.3" rx="2.22" ry="2.22"/><rect class="cls-10" x="223.65" y="367.96" width="132.77" height="5.3" rx="2.22" ry="2.22"/><rect class="cls-10" x="223.65" y="380.86" width="101.45" height="5.3" rx="2.22" ry="2.22"/><path class="cls-5" d="M180.79,244.76a3.55,3.55,0,0,1-2.69-1.27L160.58,223.4a4.81,4.81,0,0,1,0-6.15,3.46,3.46,0,0,1,5.37,0l14.84,17,34.13-39.12a3.46,3.46,0,0,1,5.37,0,4.81,4.81,0,0,1,0,6.15l-36.81,42.19A3.55,3.55,0,0,1,180.79,244.76Z" transform="translate(0 -3.59)"/><circle class="cls-10" cx="162.8" cy="375.8" r="4.94"/><circle class="cls-10" cx="182.28" cy="375.8" r="4.94"/><circle class="cls-10" cx="201.75" cy="375.8" r="4.94"/><path class="cls-21" d="M288.68,294.24l-15.39-23.09a7,7,0,0,0-5.82-3.11H228.34a7,7,0,0,0-5.82,3.11l-15.39,23.09a7,7,0,0,0-1.17,3.88V317a7,7,0,0,0,7,7h69.91a7,7,0,0,0,7-7V298.11a7,7,0,0,0-1.17-3.88Zm-59.09-16.88h36.63L278.65,296H260.72l-4.66,9.32H239.75L235.09,296H217.16Z" transform="translate(0 -3.59)"/><path class="cls-22" d="M261.55,269.3,260,266.55c-1.12,1-2.24,2-3.33,3.07l1.62,2.71C259.34,271.29,260.44,270.29,261.55,269.3Z" transform="translate(0 -3.59)"/><polygon class="cls-22" points="255.69 271.19 254.03 268.51 250.81 271.75 252.5 274.38 255.69 271.19"/><path class="cls-22" d="M247,284c1-1.14,2-2.3,3-3.38L248.32,278c-1.06,1.1-2.08,2.28-3.1,3.44Z" transform="translate(0 -3.59)"/><path class="cls-22" d="M280,254.29l-1.39-2.9c-1.18.88-2.38,1.74-3.55,2.65l1.43,2.88C277.68,256,278.86,255.17,280,254.29Z" transform="translate(0 -3.59)"/><path class="cls-22" d="M273.76,259.06l-1.45-2.86c-1.18.9-2.33,1.84-3.48,2.78l1.48,2.83C271.45,260.88,272.59,259.94,273.76,259.06Z" transform="translate(0 -3.59)"/><polygon class="cls-22" points="267.61 260.43 266.1 257.62 262.69 260.54 264.24 263.31 267.61 260.43"/><path class="cls-22" d="M299.47,241.17l-1.24-3c-1.24.76-2.47,1.52-3.69,2.32l1.27,3C297,242.68,298.24,241.92,299.47,241.17Z" transform="translate(0 -3.59)"/><path class="cls-22" d="M292.91,245.34l-1.29-3c-1.23.78-2.43,1.62-3.64,2.43l1.32,3C290.5,247,291.69,246.11,292.91,245.34Z" transform="translate(0 -3.59)"/><polygon class="cls-22" points="286.45 246.09 285.11 243.16 281.52 245.7 282.89 248.62 286.45 246.09"/><polygon class="cls-22" points="319.6 226.1 318.49 223.01 314.69 225.05 315.81 228.11 319.6 226.1"/><polygon class="cls-22" points="312.83 229.75 311.68 226.69 307.9 228.81 309.08 231.85 312.83 229.75"/><polygon class="cls-22" points="306.15 233.55 304.95 230.52 301.21 232.73 302.43 235.75 306.15 233.55"/><polygon class="cls-22" points="340.3 216.22 339.34 213.07 335.43 214.78 336.41 217.92 340.3 216.22"/><polygon class="cls-22" points="333.35 219.32 332.34 216.19 328.46 218.02 329.5 221.13 333.35 219.32"/><polygon class="cls-22" points="326.48 222.6 325.42 219.5 321.58 221.42 322.66 224.51 326.48 222.6"/><path class="cls-22" d="M361.51,211.67l-.79-3.21c-1.34.44-2.68.91-4,1.38l.83,3.2C358.86,212.57,360.19,212.11,361.51,211.67Z" transform="translate(0 -3.59)"/><polygon class="cls-22" points="354.39 210.57 353.54 207.38 349.57 208.88 350.45 212.06 354.39 210.57"/><polygon class="cls-22" points="347.36 213.28 346.45 210.11 342.5 211.72 343.44 214.88 347.36 213.28"/><path class="cls-22" d="M383.21,205.64l-.58-3.27c-1.37.29-2.74.61-4.11.94l.63,3.26C380.5,206.24,381.86,205.93,383.21,205.64Z" transform="translate(0 -3.59)"/><path class="cls-22" d="M375.94,207.37l-.66-3.25c-1.36.35-2.72.72-4.08,1.1l.7,3.24C373.25,208.09,374.59,207.72,375.94,207.37Z" transform="translate(0 -3.59)"/><polygon class="cls-22" points="368.74 205.79 368.01 202.56 363.96 203.8 364.73 207.02 368.74 205.79"/><path class="cls-22" d="M405.1,199.27c-1.41.06-2.81.16-4.21.27l.32,3.31c1.38-.11,2.75-.2,4.13-.26Z" transform="translate(0 -3.59)"/><path class="cls-22" d="M397.94,203.18l-.38-3.3q-2.09.23-4.18.54l.44,3.3Q395.87,203.4,397.94,203.18Z" transform="translate(0 -3.59)"/><path class="cls-22" d="M390.59,204.21l-.49-3.29c-1.38.24-2.76.49-4.14.76l.54,3.28C387.86,204.69,389.23,204.44,390.59,204.21Z" transform="translate(0 -3.59)"/><path class="cls-22" d="M428,202a42,42,0,0,0-4.23-1.28l-.34,3.26a39.84,39.84,0,0,1,4,1.21Z" transform="translate(0 -3.59)"/><path class="cls-22" d="M420.35,200q-2.13-.36-4.26-.55l0,3.31q2.06.19,4.1.53Z" transform="translate(0 -3.59)"/><path class="cls-22" d="M412.74,199.26c-1.42-.07-2.83-.08-4.24-.08l.17,3.32c1.38,0,2.76,0,4.13.08Z" transform="translate(0 -3.59)"/><path class="cls-22" d="M440,223.1l2.59.45a23.94,23.94,0,0,0-.26-5.73l-2.53.62A19.45,19.45,0,0,1,440,223.1Z" transform="translate(0 -3.59)"/><path class="cls-22" d="M441,213.48a18.17,18.17,0,0,0-2.84-4.63l-1.77,2.3a14.68,14.68,0,0,1,2.32,3.76Z" transform="translate(0 -3.59)"/><path class="cls-22" d="M435.3,206a24.36,24.36,0,0,0-4-2.56l-.84,3.07a21.76,21.76,0,0,1,3.56,2.28Z" transform="translate(0 -3.59)"/><path class="cls-22" d="M431.31,244.46,430,246.39l2,2.29,1.35-2c.44-.68.88-1.35,1.31-2l-2.07-2.16Z" transform="translate(0 -3.59)"/><path class="cls-22" d="M434.47,239.26l2.15,2c.79-1.46,1.56-2.93,2.25-4.48L436.61,235C436,236.47,435.22,237.87,434.47,239.26Z" transform="translate(0 -3.59)"/><path class="cls-22" d="M438,231.52l2.37,1.54a42.64,42.64,0,0,0,1.5-5.09l-2.5-1.07A39,39,0,0,1,438,231.52Z" transform="translate(0 -3.59)"/><path class="cls-22" d="M418.84,264.44l-1.71-2.62c-1,1.09-2.1,2.16-3.17,3.21l1.66,2.67C416.7,266.63,417.78,265.55,418.84,264.44Z" transform="translate(0 -3.59)"/><path class="cls-22" d="M419.6,259.2l1.75,2.58c1-1.14,2.07-2.28,3.09-3.46l-1.8-2.52C421.64,257,420.62,258.08,419.6,259.2Z" transform="translate(0 -3.59)"/><path class="cls-22" d="M426.8,255.5q1.48-1.82,2.92-3.71l-1.92-2.37q-1.39,1.85-2.85,3.62Z" transform="translate(0 -3.59)"/></g></g></g></svg>