<svg xmlns="http://www.w3.org/2000/svg" xmlns:xlink="http://www.w3.org/1999/xlink" viewBox="0 0 496.3 496.3"><defs><style>.cls-1,.cls-13,.cls-17{fill:none;}.cls-2{isolation:isolate;}.cls-3,.cls-4{fill:#007aff;}.cls-11,.cls-3{opacity:0.5;}.cls-5{fill:#d7edff;}.cls-12,.cls-6{fill:#fff;}.cls-7{fill:#204f80;}.cls-10,.cls-8{fill:#d3dde5;}.cls-8,.cls-9{mix-blend-mode:multiply;}.cls-11{fill:#f1f8fe;}.cls-12{opacity:0.2;}.cls-13,.cls-17{stroke:#204f80;stroke-miterlimit:10;}.cls-13{stroke-width:5px;}.cls-14{fill:#f5737f;}.cls-15{fill:#ffe600;}.cls-16{fill:#ffba1f;}.cls-17{stroke-width:3px;}.cls-18{clip-path:url(#clip-path);}.cls-19{fill:#fedac6;}.cls-20{fill:#f5c4b0;}.cls-21{fill:#a15d30;}.cls-22{fill:#2e6aa3;}.cls-23{fill:#ebebeb;}.cls-24{fill:#8f4f24;}.cls-25{fill:#215280;}.cls-26{fill:#c0c7cf;}.cls-27{fill:#abb1b8;}.cls-28{fill:#e7387f;}.cls-29{fill:#ef75a7;}.cls-30{fill:#dfe6f0;}.cls-31{fill:#d0d7e0;}.cls-32{clip-path:url(#clip-path-2);}</style><clipPath id="clip-path"><ellipse class="cls-1" cx="247.06" cy="201.92" rx="39.08" ry="41.85"/></clipPath><clipPath id="clip-path-2"><rect class="cls-1" x="154.18" y="347.62" width="57.87" height="24.75"/></clipPath></defs><title>Pantalla1</title><g class="cls-2"><g id="Layer_2" data-name="Layer 2"><g id="Layer_1-2" data-name="Layer 1"><circle class="cls-3" cx="248.43" cy="225.27" r="224.55"/><rect class="cls-4" x="350.63" y="135.05" width="145.33" height="11.06" rx="5.53" ry="5.53" transform="translate(846.6 281.16) rotate(-180)"/><rect class="cls-4" x="350.63" y="160.74" width="98.42" height="11.06" rx="5.53" ry="5.53" transform="translate(799.68 332.54) rotate(-180)"/><rect class="cls-4" y="198.27" width="158.52" height="11.06" rx="5.53" ry="5.53"/><rect class="cls-4" x="51.17" y="223.96" width="107.34" height="11.06" rx="5.53" ry="5.53"/><rect class="cls-4" x="100.16" y="458.69" width="314.33" height="6.6" rx="1.5" ry="1.5"/><polygon class="cls-5" points="350.63 368.35 350.63 376.74 350.63 382.8 350.63 391.99 350.63 397.25 145.51 397.25 145.51 391.99 145.51 382.8 145.51 376.74 145.51 368.35 145.51 118.82 350.63 118.82 350.63 368.35"/><rect class="cls-1" width="496.3" height="496.3"/><rect class="cls-4" x="145.51" y="118.82" width="205.12" height="34.6"/><rect class="cls-4" x="145.51" y="379.95" width="205.12" height="17.3"/><path class="cls-6" d="M350.63,112.76H145.51V98.67A19.46,19.46,0,0,1,165,79.23H331.19a19.46,19.46,0,0,1,19.45,19.44Z"/><path class="cls-7" d="M248.07,93h-26.4a3,3,0,0,0,0,6.07h26.4a3,3,0,0,0,0-6.07Z"/><path class="cls-7" d="M274.47,93h-6.6a3,3,0,1,0,0,6.07h6.6a3,3,0,1,0,0-6.07Z"/><path class="cls-7" d="M248.07,447.55a17.3,17.3,0,1,0-17.3-17.3A17.32,17.32,0,0,0,248.07,447.55Zm0-30a12.71,12.71,0,1,1-12.71,12.7A12.72,12.72,0,0,1,248.07,417.54Z"/><path class="cls-6" d="M350.63,436.49a19.46,19.46,0,0,1-19.44,19.44H165a19.46,19.46,0,0,1-19.44-19.44V403.31H350.63Z"/><polygon class="cls-8" points="350.63 368.35 350.63 376.74 350.63 382.8 350.63 391.99 350.63 397.25 335.6 397.25 335.6 391.99 335.6 382.8 335.6 376.74 335.6 368.35 335.6 118.82 350.63 118.82 350.63 368.35"/><path class="cls-7" d="M248.07,93h-26.4a3,3,0,0,0,0,6.07h26.4a3,3,0,0,0,0-6.07Z"/><path class="cls-7" d="M274.47,93h-6.6a3,3,0,1,0,0,6.07h6.6a3,3,0,1,0,0-6.07Z"/><path class="cls-7" d="M248.07,447.55a17.3,17.3,0,1,0-17.3-17.3A17.32,17.32,0,0,0,248.07,447.55Zm0-30a12.71,12.71,0,1,1-12.71,12.7A12.72,12.72,0,0,1,248.07,417.54Z"/><path class="cls-7" d="M331.19,73.16H165a25.53,25.53,0,0,0-25.5,25.5V436.48A25.54,25.54,0,0,0,165,462H331.19a25.54,25.54,0,0,0,25.51-25.5V98.67A25.53,25.53,0,0,0,331.19,73.16Zm19.44,363.33a19.46,19.46,0,0,1-19.44,19.44H165a19.46,19.46,0,0,1-19.44-19.44V403.31H350.63Zm0-68.14v28.9H145.51V118.82H350.63Zm0-255.59H145.51V98.67A19.46,19.46,0,0,1,165,79.23H331.19a19.46,19.46,0,0,1,19.45,19.44Z"/><g class="cls-9"><path class="cls-10" d="M335.6,79.75v33h15V98.67A19.46,19.46,0,0,0,335.6,79.75Z"/></g><g class="cls-9"><path class="cls-10" d="M335.6,455.93V403.31h15V437A19.46,19.46,0,0,1,335.6,455.93Z"/></g><rect class="cls-7" x="145.33" y="152.98" width="205.3" height="7.58"/><rect class="cls-7" x="145.33" y="372.37" width="205.3" height="7.58"/><rect class="cls-11" x="212.82" y="132.56" width="68.97" height="7.13" rx="2" ry="2"/><rect class="cls-12" x="285.28" y="379.95" width="64.92" height="17.02"/><circle class="cls-6" cx="177.8" cy="388.2" r="3.57"/><circle class="cls-6" cx="249.37" cy="388.2" r="3.57"/><circle class="cls-4" cx="317.75" cy="388.2" r="3.57"/><rect class="cls-6" x="158.52" y="175.09" width="177.09" height="104.95" rx="22.76" ry="22.76"/><rect class="cls-13" x="158.52" y="175.09" width="177.09" height="104.95" rx="22.76" ry="22.76"/><path class="cls-8" d="M318.26,177.46h-13a18.89,18.89,0,0,1,19.11,18.67v63.78a18.89,18.89,0,0,1-19.11,18.67h13a18.89,18.89,0,0,0,19.11-18.67V196.13A18.89,18.89,0,0,0,318.26,177.46Z"/><rect class="cls-7" x="215.33" y="298.62" width="122.03" height="3.86" rx="1.93" ry="1.93"/><rect class="cls-7" x="215.33" y="311.89" width="93.24" height="3.86" rx="1.93" ry="1.93"/><rect class="cls-7" x="232.77" y="331.71" width="58.49" height="3.86" rx="1.93" ry="1.93"/><rect class="cls-7" x="218.42" y="250.86" width="58.49" height="3.86" rx="1.93" ry="1.93"/><path class="cls-14" d="M225.54,326a6.12,6.12,0,0,0-7.71,0,7.35,7.35,0,0,0-2.21,7.5c.9,3,3.61,5.33,5.91,7.22l.16.13.16-.13c2.27-1.87,4.83-4,5.8-6.87A7.5,7.5,0,0,0,225.54,326Zm-3.86,7.6a2.64,2.64,0,1,1,2.64-2.64A2.64,2.64,0,0,1,221.68,333.64Z"/><path class="cls-15" d="M196,270.61,193.24,272a.87.87,0,0,1-1.26-.92l.52-3a.87.87,0,0,0-.25-.77L190,265.17a.87.87,0,0,1,.48-1.49l3-.44a.87.87,0,0,0,.66-.48l1.36-2.76a.87.87,0,0,1,1.56,0l1.36,2.76a.87.87,0,0,0,.66.48l3,.44a.87.87,0,0,1,.48,1.49l-2.21,2.15a.87.87,0,0,0-.25.77l.52,3a.87.87,0,0,1-1.26.92l-2.73-1.43A.87.87,0,0,0,196,270.61Z"/><path class="cls-6" d="M221.61,270.61,218.89,272a.87.87,0,0,1-1.26-.92l.52-3a.87.87,0,0,0-.25-.77l-2.21-2.15a.87.87,0,0,1,.48-1.49l3-.44a.87.87,0,0,0,.66-.48l1.36-2.76a.87.87,0,0,1,1.56,0l1.36,2.76a.87.87,0,0,0,.66.48l3,.44a.87.87,0,0,1,.48,1.49l-2.21,2.15a.87.87,0,0,0-.25.77l.52,3a.87.87,0,0,1-1.26.92l-2.73-1.43A.87.87,0,0,0,221.61,270.61Z"/><path class="cls-6" d="M247.26,270.61,244.53,272a.87.87,0,0,1-1.26-.92l.52-3a.87.87,0,0,0-.25-.77l-2.21-2.15a.87.87,0,0,1,.48-1.49l3-.44a.87.87,0,0,0,.66-.48l1.36-2.76a.87.87,0,0,1,1.56,0l1.36,2.76a.87.87,0,0,0,.66.48l3,.44a.87.87,0,0,1,.48,1.49l-2.21,2.15a.87.87,0,0,0-.25.77l.52,3a.87.87,0,0,1-1.26.92l-2.73-1.43A.87.87,0,0,0,247.26,270.61Z"/><path class="cls-6" d="M272.9,270.61,270.17,272a.87.87,0,0,1-1.26-.92l.52-3a.87.87,0,0,0-.25-.77L267,265.17a.87.87,0,0,1,.48-1.49l3-.44a.87.87,0,0,0,.66-.48l1.36-2.76a.87.87,0,0,1,1.56,0l1.36,2.76a.87.87,0,0,0,.66.48l3,.44a.87.87,0,0,1,.48,1.49l-2.21,2.15a.87.87,0,0,0-.25.77l.52,3a.87.87,0,0,1-1.26.92l-2.73-1.43A.87.87,0,0,0,272.9,270.61Z"/><path class="cls-15" d="M298.55,270.61,295.82,272a.87.87,0,0,1-1.26-.92l.52-3a.87.87,0,0,0-.25-.77l-2.21-2.15a.87.87,0,0,1,.48-1.49l3-.44a.87.87,0,0,0,.66-.48l1.36-2.76a.87.87,0,0,1,1.56,0l1.36,2.76a.87.87,0,0,0,.66.48l3,.44a.87.87,0,0,1,.48,1.49l-2.21,2.15a.87.87,0,0,0-.25.77l.52,3a.87.87,0,0,1-1.26.92l-2.73-1.43A.87.87,0,0,0,298.55,270.61Z"/><path class="cls-15" d="M221.61,270.61,218.89,272a.87.87,0,0,1-1.26-.92l.52-3a.87.87,0,0,0-.25-.77l-2.21-2.15a.87.87,0,0,1,.48-1.49l3-.44a.87.87,0,0,0,.66-.48l1.36-2.76a.87.87,0,0,1,1.56,0l1.36,2.76a.87.87,0,0,0,.66.48l3,.44a.87.87,0,0,1,.48,1.49l-2.21,2.15a.87.87,0,0,0-.25.77l.52,3a.87.87,0,0,1-1.26.92l-2.73-1.43A.87.87,0,0,0,221.61,270.61Z"/><path class="cls-15" d="M247.26,270.61,244.53,272a.87.87,0,0,1-1.26-.92l.52-3a.87.87,0,0,0-.25-.77l-2.21-2.15a.87.87,0,0,1,.48-1.49l3-.44a.87.87,0,0,0,.66-.48l1.36-2.76a.87.87,0,0,1,1.56,0l1.36,2.76a.87.87,0,0,0,.66.48l3,.44a.87.87,0,0,1,.48,1.49l-2.21,2.15a.87.87,0,0,0-.25.77l.52,3a.87.87,0,0,1-1.26.92l-2.73-1.43A.87.87,0,0,0,247.26,270.61Z"/><path class="cls-15" d="M272.9,270.61,270.17,272a.87.87,0,0,1-1.26-.92l.52-3a.87.87,0,0,0-.25-.77L267,265.17a.87.87,0,0,1,.48-1.49l3-.44a.87.87,0,0,0,.66-.48l1.36-2.76a.87.87,0,0,1,1.56,0l1.36,2.76a.87.87,0,0,0,.66.48l3,.44a.87.87,0,0,1,.48,1.49l-2.21,2.15a.87.87,0,0,0-.25.77l.52,3a.87.87,0,0,1-1.26.92l-2.73-1.43A.87.87,0,0,0,272.9,270.61Z"/><circle class="cls-16" cx="247.06" cy="209.6" r="35.01"/><circle class="cls-17" cx="247.06" cy="209.6" r="35.01"/><g class="cls-18"><path class="cls-19" d="M262.41,182c-3.68-1.31-6.14-7.89-6.14-7.89-5.11,6.38-16.69,6.44-23.33,5.88V201.7a13.14,13.14,0,0,0,2.19,7.28l.45.68a11.5,11.5,0,0,0,9.52,5.26h5.61a11.56,11.56,0,0,0,10.15-6.31h0a13.12,13.12,0,0,0,1.55-6.3V182Z"/><path class="cls-20" d="M237.86,196.35V180.17c-1.79,0-3.47-.08-4.91-.21V201.7a13.14,13.14,0,0,0,2.19,7.28l.45.68a11.69,11.69,0,0,0,7.18,4.9l-.49-.91A36.23,36.23,0,0,1,237.86,196.35Z"/><path class="cls-19" d="M273.47,242.46V229.31a10.31,10.31,0,0,0-8.52-10.43l-7.15-1A3.34,3.34,0,0,1,255,214.5v-3.6H240.31v3.6a3.34,3.34,0,0,1-2.75,3.37l-7.15,1a10.31,10.31,0,0,0-8.52,10.43v13.15Z"/><path class="cls-20" d="M256.09,217a3.47,3.47,0,0,1-1-2.5v-3.6H240.31v3.6a3.47,3.47,0,0,1-1,2.5A17.34,17.34,0,0,0,256.09,217Z"/><path class="cls-21" d="M262.41,182v-5.26a6.37,6.37,0,0,0-6.14-6.57h0a12.18,12.18,0,0,0-8.89-3.94H244c-7.28,0-13.51,6.57-16,13.15,0,0,20.87,3.94,28.24-5.26,0,0,2.46,6.57,6.14,7.89"/><path class="cls-21" d="M258.14,197.88a2.13,2.13,0,0,1-3,.86,2.28,2.28,0,0,1-.72-.73,6,6,0,0,0-5.06-2.89H246A6,6,0,0,0,241,198a2.12,2.12,0,0,1-3.07.64,2.32,2.32,0,0,1-.68-.77l-4.27-8.44V201.7a13.14,13.14,0,0,0,2.19,7.28l.45.68a11.5,11.5,0,0,0,9.52,5.26h5.61c6.47,0,11.71-5.63,11.7-12.56V189.44Z"/><path class="cls-19" d="M262.41,182h-1.23v7.89h1.23a4,4,0,0,0,0-7.89Z"/><path class="cls-20" d="M229.26,185.92a3.82,3.82,0,0,0,3.68,3.94h1.23V182h-1.23A3.82,3.82,0,0,0,229.26,185.92Z"/><path class="cls-22" d="M264.94,218.88l-7.15-1a3.1,3.1,0,0,1-1.15-.39l-9,13.15-9-13.15a3.09,3.09,0,0,1-1.15.43l-7.15,1a10.3,10.3,0,0,0-8.52,10.39v14.46h51.57V229.31A10.31,10.31,0,0,0,264.94,218.88Z"/><polygon class="cls-23" points="242.77 224.05 247.68 230.62 252.59 224.05 242.77 224.05"/><rect class="cls-22" x="219.44" y="238.51" width="12.28" height="5.26"/><rect class="cls-22" x="263.64" y="238.51" width="12.28" height="5.26"/><path class="cls-24" d="M239.89,166.89c-5.45,1.93-9.88,7.19-11.86,12.45a59.46,59.46,0,0,0,9.82.84v-3.47A23.82,23.82,0,0,1,239.89,166.89Z"/><path class="cls-24" d="M237.93,198.67a2.56,2.56,0,0,1-.71-.79l-4.27-8.44V201.7a13.14,13.14,0,0,0,2.19,7.28l.45.68a11.69,11.69,0,0,0,7.18,4.9l-.49-.91A36.19,36.19,0,0,1,237.93,198.67Z"/><rect class="cls-25" x="241.54" y="222.73" width="2.46" height="21.04"/><rect class="cls-25" x="235.4" y="218.79" width="2.46" height="24.98"/><rect class="cls-25" x="229.26" y="218.79" width="2.46" height="24.98"/><rect class="cls-25" x="223.12" y="222.73" width="2.46" height="21.04"/><rect class="cls-25" x="223.12" y="224.05" width="19.65" height="2.63"/><rect class="cls-25" x="221.89" y="230.62" width="25.79" height="2.63"/><rect class="cls-25" x="224.35" y="237.2" width="24.56" height="2.63"/><rect class="cls-25" x="251.36" y="222.73" width="2.46" height="21.04"/><rect class="cls-25" x="257.5" y="218.79" width="2.46" height="24.98"/><rect class="cls-25" x="263.64" y="218.79" width="2.46" height="24.98"/><rect class="cls-25" x="269.78" y="222.73" width="2.46" height="21.04"/><rect class="cls-25" x="252.59" y="224.05" width="19.65" height="2.63"/><rect class="cls-25" x="247.68" y="230.62" width="25.79" height="2.63"/><rect class="cls-25" x="246.45" y="237.2" width="24.56" height="2.63"/><path class="cls-7" d="M262.41,191.18h-1.23v-2.63h1.23a2.64,2.64,0,0,0,0-5.26h-1.23v-2.63h1.23a5.27,5.27,0,0,1,0,10.52Z"/><path class="cls-7" d="M234.17,191.18h-1.23a5.27,5.27,0,0,1,0-10.52h1.23v2.63h-1.23a2.64,2.64,0,0,0,0,5.26h1.23v2.63Z"/><path class="cls-7" d="M250.72,216.24H245.1a12.73,12.73,0,0,1-10.52-5.81l-.46-.69a14.42,14.42,0,0,1-2.41-8V179.35h2.46V201.7a11.68,11.68,0,0,0,2,6.52l.46.69a10.31,10.31,0,0,0,8.52,4.71h5.62A10.37,10.37,0,0,0,259.8,208a11.74,11.74,0,0,0,1.39-5.64V180.66h2.46v21.66a14.53,14.53,0,0,1-1.71,7A12.81,12.81,0,0,1,250.72,216.24Z"/><path class="cls-7" d="M262.41,183.29a1.17,1.17,0,0,1-.39-.07c-2.9-1-5-4.67-6.12-6.89-8.53,7.88-27.25,4.46-28.09,4.3A1.23,1.23,0,0,1,227,180a1.4,1.4,0,0,1-.07-1.13c2.59-6.94,9.3-14,17.1-14h3.39a13.24,13.24,0,0,1,9.4,4,7.7,7.7,0,0,1,6.85,7.87V182a1.35,1.35,0,0,1-.51,1.07A1.17,1.17,0,0,1,262.41,183.29Zm-6.14-10.52.2,0a1.25,1.25,0,0,1,.94.81,18.34,18.34,0,0,0,3.77,6.08v-3a5.1,5.1,0,0,0-4.91-5.26,1.19,1.19,0,0,1-.87-.38,10.92,10.92,0,0,0-8-3.56H244c-6.15,0-11.55,5.2-14.17,10.78,4.89.67,19.82,2.05,25.52-5.06A1.19,1.19,0,0,1,256.27,172.77Z"/><path class="cls-7" d="M256.19,200.38a3.33,3.33,0,0,1-2.82-1.64,4.82,4.82,0,0,0-4-2.3H246a4.75,4.75,0,0,0-4.09,2.31,3.35,3.35,0,0,1-2.84,1.63h0a3.44,3.44,0,0,1-2.93-1.84l-4.28-8,2.13-1.3,4.27,8a1,1,0,0,0,.83.52h0a.94.94,0,0,0,.78-.46,7.24,7.24,0,0,1,6.11-3.48h3.34a7.25,7.25,0,0,1,6.08,3.47.93.93,0,0,0,.83.47,1,1,0,0,0,.88-.53l4.22-8,2.14,1.29-4.22,8a3.42,3.42,0,0,1-3,1.85Z"/><path class="cls-7" d="M223.12,238.51h-2.46v-9.2c0-5.9,4.12-10.95,9.59-11.73l7.15-1a2.06,2.06,0,0,0,1.68-2.06h2.46a4.65,4.65,0,0,1-3.81,4.67l-7.15,1a9,9,0,0,0-7.46,9.12v9.2Z"/><path class="cls-7" d="M274.69,238.51h-2.46v-9.2a9,9,0,0,0-7.46-9.12l-7.14-1a4.64,4.64,0,0,1-3.82-4.67h2.46a2.05,2.05,0,0,0,1.69,2.06l7.14,1c5.47.78,9.59,5.83,9.59,11.73Z"/><rect class="cls-7" x="230.49" y="233.25" width="2.46" height="10.52"/><rect class="cls-7" x="262.41" y="233.25" width="2.46" height="10.52"/><path class="cls-7" d="M247.68,231.94a1.2,1.2,0,0,1-1-.56l-8.6-13.15,2-1.51,7.59,11.61,7.59-11.61,2,1.51-8.6,13.15A1.21,1.21,0,0,1,247.68,231.94Z"/><path class="cls-7" d="M237.86,233.25a1.17,1.17,0,0,1-.48-.1,1.3,1.3,0,0,1-.73-1l-2.46-14.46,2.42-.47,2.12,12.49,5.81-4.15,1.36,2.19L238.54,233A1.18,1.18,0,0,1,237.86,233.25Z"/><path class="cls-7" d="M257.5,233.25a1.17,1.17,0,0,1-.68-.22l-7.37-5.26,1.36-2.19,5.81,4.15,2.12-12.49,2.42.47-2.46,14.46a1.3,1.3,0,0,1-.73,1A1.13,1.13,0,0,1,257.5,233.25Z"/><rect class="cls-7" x="246.45" y="230.62" width="2.46" height="13.15"/><rect class="cls-7" x="242.77" y="222.73" width="9.82" height="2.63"/><path class="cls-7" d="M232.94,243.77h-2.46v-3.94h-9.82v3.94h-2.46v-5.26a1.27,1.27,0,0,1,1.23-1.31h12.28a1.27,1.27,0,0,1,1.23,1.31v5.26Z"/><path class="cls-7" d="M277.15,243.77h-2.46v-3.94h-9.82v3.94h-2.46v-5.26a1.27,1.27,0,0,1,1.23-1.31h12.28a1.27,1.27,0,0,1,1.23,1.31v5.26Z"/><path class="cls-7" d="M243.38,237.2a2,2,0,1,1,1.84-2A1.91,1.91,0,0,1,243.38,237.2Zm0-2.63a.66.66,0,1,0,.61.66A.64.64,0,0,0,243.38,234.57Z"/></g><rect class="cls-16" x="158.52" y="291.95" width="48.06" height="48.74" rx="14.02" ry="14.02"/><rect class="cls-13" x="158.52" y="291.95" width="48.06" height="48.74" rx="14.02" ry="14.02"/><path class="cls-8" d="M195.36,294.25h-5.94c4.82,0,8.73,3.62,8.73,8.08V330c0,4.46-3.91,8.08-8.73,8.08h5.94c4.82,0,8.73-3.62,8.73-8.08V302.34C204.09,297.87,200.18,294.25,195.36,294.25Z"/><path class="cls-26" d="M185,322l12.29,12.4a2.1,2.1,0,0,0,3,0,2.14,2.14,0,0,0,0-3l-14.72-14.86-2.23-2.25-6.78-6.84a6.15,6.15,0,0,0-1.22-6.86,6,6,0,0,0-6.41-1.4l3.79,3.83-.9,2.65-2.63.91-3.79-3.83a6.15,6.15,0,0,0,1.38,6.47,6,6,0,0,0,6.8,1.24l4.13,4.17Z"/><path class="cls-27" d="M200.24,331.44l-14.72-14.86-2.23-2.25-6.78-6.84a6.15,6.15,0,0,0-1.22-6.86A6,6,0,0,0,169.8,299a6,6,0,0,1,3.07,1.67,6.15,6.15,0,0,1,1.22,6.86l6.78,6.84,2.23,2.25,14.72,14.86a2.14,2.14,0,0,1-.29,3.26,2.1,2.1,0,0,0,2.69-.24,2.14,2.14,0,0,0,0-3Z"/><path class="cls-28" d="M182.83,321.94,178,317a1.58,1.58,0,0,1,0-2.21,1.54,1.54,0,0,1,2.19,0l4.87,4.92a1.58,1.58,0,0,1,0,2.21A1.54,1.54,0,0,1,182.83,321.94Z"/><path class="cls-29" d="M165.78,334.24a2.86,2.86,0,0,1,0-4l12.63-12.74,4,4-12.63,12.74A2.8,2.8,0,0,1,165.78,334.24Z"/><path class="cls-30" d="M196.41,307.73l4.44-6-2.9-2.93-5.9,4.48-.64,3,.06.06-9.74,9.83,1.86,1.88,9.74-9.83.06.06Z"/><path class="cls-31" d="M197.94,298.85l-2.12,1.61,3.43,3.45,1.59-2.13Z"/><path class="cls-7" d="M186.1,316.39l7.41-7.48,3-.64a.55.55,0,0,0,.32-.21l4.36-5.85,0,0a.55.55,0,0,0,0-.77l-1.46-1.48-1.45-1.46h0a.55.55,0,0,0-.77,0l0,0-5.79,4.4a.55.55,0,0,0-.2.32l-.64,3h0l-1.33,1.34-.05.06-6,6.07-6.32-6.38a6.73,6.73,0,0,0-1.48-7.12,6.57,6.57,0,0,0-7-1.52.55.55,0,0,0-.19.9L172,303.2l-.71,2.08-2.05.71-3.55-3.58a.55.55,0,0,0-.9.19,6.71,6.71,0,0,0,1.51,7,6.59,6.59,0,0,0,7.06,1.5l3.79,3.83a2.15,2.15,0,0,0,.45,2.5l-12.24,12.36a3.44,3.44,0,0,0-.2,4.57,3.38,3.38,0,0,0,5,.23l12.24-12.35a2.11,2.11,0,0,0,2.48.45l6.87,6.93.08.06,5,5.11a2.67,2.67,0,0,0,3.83-.08,2.72,2.72,0,0,0-.07-3.7Zm11.8-16.81,2.23,2.25-.93,1.25,0,0-2.5-2.53Zm-7.49,8.72.05-.06,1.4-1.41a.55.55,0,0,0,.13-.56l.55-2.62,3.24-2.46s2.72,2.72,2.78,2.75l-2.47,3.31-2.59.55a.55.55,0,0,0-.56.13l-9.35,9.44-1.09-1.1Zm-16.5,1.82a.55.55,0,0,0-.62-.11,5.49,5.49,0,0,1-6.18-1.12,5.61,5.61,0,0,1-1.5-5l3.14,3.16a.55.55,0,0,0,.57.13l2.63-.91a.55.55,0,0,0,.34-.34l.9-2.65a.55.55,0,0,0-.13-.56l-3.15-3.18a5.48,5.48,0,0,1,5,1.51,5.63,5.63,0,0,1,1.11,6.25.55.55,0,0,0,.11.61l6.58,6.64-1,1-1.12-1.13a2.09,2.09,0,0,0-2.63-.28Zm-4.53,23.74a2.29,2.29,0,0,1-3.21-3.25l12.24-12.35,1.78,1.8,1.43,1.45Zm15.26-12.3h0a1,1,0,0,1-1.42,0l-.44-.45h0l-2-2-2.44-2.46a1,1,0,0,1,0-1.44,1,1,0,0,1,1.42,0l4.87,4.92A1,1,0,0,1,184.64,321.56Zm13,12.5-5.35-5.41-.08-.07L185.68,322a2.13,2.13,0,0,0-.27-2.65l-1.12-1.14,1-1,14.52,14.66C201.26,333.25,199.08,335.52,197.64,334.06Z"/><path class="cls-7" d="M172.59,327.51l-4.76,4.81c-.49.49.28,1.27.78.77l4.76-4.81A.55.55,0,0,0,172.59,327.51Z"/><path class="cls-7" d="M198.51,332.23a.55.55,0,0,0,0,1.09A.55.55,0,0,0,198.51,332.23Z"/><rect class="cls-7" x="215.33" y="358.36" width="122.03" height="3.86" rx="1.93" ry="1.93"/><g class="cls-32"><rect class="cls-16" x="158.52" y="351.69" width="48.06" height="48.74" rx="14.02" ry="14.02"/><rect class="cls-13" x="158.52" y="351.69" width="48.06" height="48.74" rx="14.02" ry="14.02"/></g></g></g></g></svg>