<svg xmlns="http://www.w3.org/2000/svg" xmlns:xlink="http://www.w3.org/1999/xlink" viewBox="0 0 496.3 496.3"><defs><style>.cls-1,.cls-12,.cls-6,.cls-8{fill:none;}.cls-2{isolation:isolate;}.cls-3,.cls-4{fill:#007aff;}.cls-3,.cls-8{opacity:0.5;}.cls-5{fill:#fff;}.cls-12,.cls-6{stroke:#204f80;stroke-miterlimit:10;}.cls-6{stroke-width:5px;}.cls-7{fill:#d3dde5;mix-blend-mode:multiply;}.cls-9{fill:#204f80;}.cls-10{fill:#ffe600;}.cls-11{fill:#ffba1f;}.cls-12{stroke-width:3px;}.cls-13{clip-path:url(#clip-path);}.cls-14{fill:#fedac6;}.cls-15{fill:#f5c4b0;}.cls-16{fill:#a15d30;}.cls-17{fill:#2e6aa3;}.cls-18{fill:#ebebeb;}.cls-19{fill:#8f4f24;}.cls-20{fill:#215280;}.cls-21{fill:#c0c7cf;}.cls-22{fill:#abb1b8;}.cls-23{fill:#e7387f;}.cls-24{fill:#ef75a7;}.cls-25{fill:#dfe6f0;}.cls-26{fill:#d0d7e0;}.cls-27{fill:#52ccc3;}.cls-28{fill:#8c5219;}</style><clipPath id="clip-path"><ellipse class="cls-1" cx="246.18" cy="166.72" rx="78.15" ry="83.69"/></clipPath></defs><title>Pantalla3</title><g class="cls-2"><g id="Layer_2" data-name="Layer 2"><g id="Layer_1-2" data-name="Layer 1"><circle class="cls-3" cx="248.43" cy="225.27" r="224.55"/><rect class="cls-4" y="279.86" width="179.9" height="11.06" rx="5.53" ry="5.53"/><rect class="cls-4" x="25.4" y="305.55" width="121.82" height="11.06" rx="5.53" ry="5.53"/><rect class="cls-5" x="69.12" y="113.07" width="354.11" height="209.86" rx="22.76" ry="22.76"/><rect class="cls-6" x="69.12" y="113.07" width="354.11" height="209.86" rx="22.76" ry="22.76"/><path class="cls-7" d="M388.55,117.8h-26c21.1,0,38.21,16.72,38.21,37.34V282.67c0,20.62-17.11,37.34-38.21,37.34h26c21.1,0,38.21-16.72,38.21-37.34V155.14C426.76,134.52,409.65,117.8,388.55,117.8Z"/><rect class="cls-8" width="496.3" height="496.3"/><rect class="cls-9" x="188.9" y="264.58" width="116.97" height="7.73" rx="1.93" ry="1.93"/><path class="cls-10" d="M144,304.07l-5.45,2.87A1.74,1.74,0,0,1,136,305.1l1-6.07a1.74,1.74,0,0,0-.5-1.54l-4.41-4.3a1.74,1.74,0,0,1,1-3l6.09-.89a1.74,1.74,0,0,0,1.31-1l2.73-5.52a1.74,1.74,0,0,1,3.13,0l2.73,5.52a1.74,1.74,0,0,0,1.31,1l6.09.89a1.74,1.74,0,0,1,1,3l-4.41,4.3a1.74,1.74,0,0,0-.5,1.54l1,6.07a1.74,1.74,0,0,1-2.53,1.84l-5.45-2.87A1.74,1.74,0,0,0,144,304.07Z"/><path class="cls-5" d="M195.29,304.07l-5.45,2.87a1.74,1.74,0,0,1-2.53-1.84l1-6.07a1.74,1.74,0,0,0-.5-1.54l-4.41-4.3a1.74,1.74,0,0,1,1-3l6.09-.89a1.74,1.74,0,0,0,1.31-1l2.73-5.52a1.74,1.74,0,0,1,3.13,0l2.73,5.52a1.74,1.74,0,0,0,1.31,1l6.09.89a1.74,1.74,0,0,1,1,3l-4.41,4.3a1.74,1.74,0,0,0-.5,1.54l1,6.07a1.74,1.74,0,0,1-2.53,1.84l-5.45-2.87A1.74,1.74,0,0,0,195.29,304.07Z"/><path class="cls-5" d="M246.57,304.07l-5.45,2.87a1.74,1.74,0,0,1-2.53-1.84l1-6.07a1.74,1.74,0,0,0-.5-1.54l-4.41-4.3a1.74,1.74,0,0,1,1-3l6.09-.89a1.74,1.74,0,0,0,1.31-1l2.73-5.52a1.74,1.74,0,0,1,3.13,0l2.73,5.52a1.74,1.74,0,0,0,1.31,1l6.09.89a1.74,1.74,0,0,1,1,3l-4.41,4.3a1.74,1.74,0,0,0-.5,1.54l1,6.07a1.74,1.74,0,0,1-2.53,1.84l-5.45-2.87A1.74,1.74,0,0,0,246.57,304.07Z"/><path class="cls-5" d="M297.85,304.07l-5.45,2.87a1.74,1.74,0,0,1-2.53-1.84l1-6.07a1.74,1.74,0,0,0-.5-1.54l-4.41-4.3a1.74,1.74,0,0,1,1-3l6.09-.89a1.74,1.74,0,0,0,1.31-1l2.73-5.52a1.74,1.74,0,0,1,3.13,0l2.73,5.52a1.74,1.74,0,0,0,1.31,1l6.09.89a1.74,1.74,0,0,1,1,3l-4.41,4.3a1.74,1.74,0,0,0-.5,1.54l1,6.07a1.74,1.74,0,0,1-2.53,1.84l-5.45-2.87A1.74,1.74,0,0,0,297.85,304.07Z"/><path class="cls-10" d="M349.13,304.07l-5.45,2.87a1.74,1.74,0,0,1-2.53-1.84l1-6.07a1.74,1.74,0,0,0-.5-1.54l-4.41-4.3a1.74,1.74,0,0,1,1-3l6.09-.89a1.74,1.74,0,0,0,1.31-1l2.73-5.52a1.74,1.74,0,0,1,3.13,0l2.73,5.52a1.74,1.74,0,0,0,1.31,1l6.09.89a1.74,1.74,0,0,1,1,3l-4.41,4.3a1.74,1.74,0,0,0-.5,1.54l1,6.07a1.74,1.74,0,0,1-2.53,1.84l-5.45-2.87A1.74,1.74,0,0,0,349.13,304.07Z"/><path class="cls-10" d="M195.29,304.07l-5.45,2.87a1.74,1.74,0,0,1-2.53-1.84l1-6.07a1.74,1.74,0,0,0-.5-1.54l-4.41-4.3a1.74,1.74,0,0,1,1-3l6.09-.89a1.74,1.74,0,0,0,1.31-1l2.73-5.52a1.74,1.74,0,0,1,3.13,0l2.73,5.52a1.74,1.74,0,0,0,1.31,1l6.09.89a1.74,1.74,0,0,1,1,3l-4.41,4.3a1.74,1.74,0,0,0-.5,1.54l1,6.07a1.74,1.74,0,0,1-2.53,1.84l-5.45-2.87A1.74,1.74,0,0,0,195.29,304.07Z"/><path class="cls-10" d="M246.57,304.07l-5.45,2.87a1.74,1.74,0,0,1-2.53-1.84l1-6.07a1.74,1.74,0,0,0-.5-1.54l-4.41-4.3a1.74,1.74,0,0,1,1-3l6.09-.89a1.74,1.74,0,0,0,1.31-1l2.73-5.52a1.74,1.74,0,0,1,3.13,0l2.73,5.52a1.74,1.74,0,0,0,1.31,1l6.09.89a1.74,1.74,0,0,1,1,3l-4.41,4.3a1.74,1.74,0,0,0-.5,1.54l1,6.07a1.74,1.74,0,0,1-2.53,1.84l-5.45-2.87A1.74,1.74,0,0,0,246.57,304.07Z"/><path class="cls-10" d="M297.85,304.07l-5.45,2.87a1.74,1.74,0,0,1-2.53-1.84l1-6.07a1.74,1.74,0,0,0-.5-1.54l-4.41-4.3a1.74,1.74,0,0,1,1-3l6.09-.89a1.74,1.74,0,0,0,1.31-1l2.73-5.52a1.74,1.74,0,0,1,3.13,0l2.73,5.52a1.74,1.74,0,0,0,1.31,1l6.09.89a1.74,1.74,0,0,1,1,3l-4.41,4.3a1.74,1.74,0,0,0-.5,1.54l1,6.07a1.74,1.74,0,0,1-2.53,1.84l-5.45-2.87A1.74,1.74,0,0,0,297.85,304.07Z"/><circle class="cls-11" cx="246.18" cy="182.08" r="70.01"/><circle class="cls-12" cx="246.18" cy="182.08" r="70.01"/><g class="cls-13"><path class="cls-14" d="M276.88,126.84c-7.37-2.63-12.28-15.78-12.28-15.78-10.21,12.75-33.37,12.88-46.65,11.75v43.46a26.27,26.27,0,0,0,4.37,14.57l.91,1.37a23,23,0,0,0,19,10.52h11.22a23.13,23.13,0,0,0,20.31-12.62h0a26.24,26.24,0,0,0,3.09-12.59V126.84Z"/><path class="cls-15" d="M227.77,155.58V123.24c-3.58,0-6.95-.16-9.82-.42v43.46a26.27,26.27,0,0,0,4.37,14.57l.91,1.37A23.37,23.37,0,0,0,237.6,192l-1-1.81A72.46,72.46,0,0,1,227.77,155.58Z"/><path class="cls-14" d="M299,247.78V221.49c0-10.54-7.28-19.45-17-20.85l-14.29-2a6.67,6.67,0,0,1-5.5-6.73v-7.2H232.69v7.2a6.67,6.67,0,0,1-5.5,6.73l-14.29,2c-9.76,1.4-17,10.31-17,20.85v26.29Z"/><path class="cls-15" d="M264.24,196.88a6.94,6.94,0,0,1-2.09-5v-7.2H232.69v7.2a6.94,6.94,0,0,1-2.09,5A34.68,34.68,0,0,0,264.24,196.88Z"/><path class="cls-16" d="M276.88,126.84V116.32c0-7.26-5.5-13.15-12.28-13.15h0a24.36,24.36,0,0,0-17.78-7.89h-6.78c-14.56,0-27,13.15-31.92,26.29,0,0,41.74,7.89,56.47-10.52,0,0,4.91,13.15,12.28,15.78"/><path class="cls-16" d="M268.34,158.65a4.26,4.26,0,0,1-6,1.71,4.55,4.55,0,0,1-1.45-1.45,12.07,12.07,0,0,0-10.12-5.78H244.1A12.07,12.07,0,0,0,234,158.92a4.24,4.24,0,0,1-6.13,1.29,4.64,4.64,0,0,1-1.36-1.55L218,141.77v24.5a26.27,26.27,0,0,0,4.37,14.57l.91,1.37a23,23,0,0,0,19,10.52h11.22c12.94,0,23.41-11.26,23.4-25.11V141.77Z"/><path class="cls-14" d="M276.88,126.84h-2.46v15.78h2.46a7.91,7.91,0,0,0,0-15.78Z"/><path class="cls-15" d="M210.59,134.73a7.64,7.64,0,0,0,7.37,7.89h2.46V126.84H218A7.64,7.64,0,0,0,210.59,134.73Z"/><path class="cls-17" d="M281.94,200.64l-14.29-2a6.2,6.2,0,0,1-2.31-.79l-17.92,26.29-17.92-26.29a6.17,6.17,0,0,1-2.31.87l-14.29,2c-9.73,1.39-17,10.26-17,20.77v28.92H299V221.49C299,210.95,291.7,202,281.94,200.64Z"/><polygon class="cls-18" points="237.6 210.97 247.42 224.12 257.24 210.97 237.6 210.97"/><rect class="cls-17" x="190.94" y="239.89" width="24.55" height="10.52"/><rect class="cls-17" x="279.34" y="239.89" width="24.55" height="10.52"/><path class="cls-19" d="M231.85,96.68c-10.9,3.86-19.77,14.38-23.72,24.9a118.9,118.9,0,0,0,19.64,1.68v-6.94A47.62,47.62,0,0,1,231.85,96.68Z"/><path class="cls-19" d="M227.92,160.23a5.12,5.12,0,0,1-1.42-1.58L218,141.77v24.5a26.27,26.27,0,0,0,4.37,14.57l.91,1.37A23.37,23.37,0,0,0,237.6,192l-1-1.81A72.36,72.36,0,0,1,227.92,160.23Z"/><rect class="cls-20" x="235.14" y="208.34" width="4.91" height="42.07"/><rect class="cls-20" x="222.86" y="200.46" width="4.91" height="49.95"/><rect class="cls-20" x="210.59" y="200.46" width="4.91" height="49.95"/><rect class="cls-20" x="198.31" y="208.34" width="4.91" height="42.07"/><rect class="cls-20" x="198.31" y="210.97" width="39.29" height="5.26"/><rect class="cls-20" x="195.86" y="224.12" width="51.56" height="5.26"/><rect class="cls-20" x="200.77" y="237.26" width="49.11" height="5.26"/><rect class="cls-20" x="254.78" y="208.34" width="4.91" height="42.07"/><rect class="cls-20" x="267.06" y="200.46" width="4.91" height="49.95"/><rect class="cls-20" x="279.34" y="200.46" width="4.91" height="49.95"/><rect class="cls-20" x="291.61" y="208.34" width="4.91" height="42.07"/><rect class="cls-20" x="257.24" y="210.97" width="39.29" height="5.26"/><rect class="cls-20" x="247.42" y="224.12" width="51.56" height="5.26"/><rect class="cls-20" x="244.96" y="237.26" width="49.11" height="5.26"/><path class="cls-9" d="M276.88,145.24h-2.46V140h2.46a5.27,5.27,0,0,0,0-10.52h-2.46v-5.26h2.46c5.42,0,9.82,4.72,9.82,10.52S282.3,145.24,276.88,145.24Z"/><path class="cls-9" d="M220.41,145.24H218c-5.42,0-9.82-4.72-9.82-10.52s4.4-10.52,9.82-10.52h2.46v5.26H218A5.27,5.27,0,0,0,218,140h2.46v5.26Z"/><path class="cls-9" d="M253.5,195.36H242.26a25.45,25.45,0,0,1-21-11.62l-.91-1.37a28.84,28.84,0,0,1-4.82-16.09v-44.7h4.91v44.7a23.35,23.35,0,0,0,3.91,13l.91,1.37a20.62,20.62,0,0,0,17,9.41H253.5a20.74,20.74,0,0,0,18.16-11.29,23.47,23.47,0,0,0,2.77-11.27V124.21h4.91v43.3a29.06,29.06,0,0,1-3.42,13.91A25.62,25.62,0,0,1,253.5,195.36Z"/><path class="cls-9" d="M276.88,129.47a2.33,2.33,0,0,1-.78-.13c-5.8-2.07-10.09-9.33-12.24-13.77-17.06,15.77-54.49,8.92-56.16,8.61a2.46,2.46,0,0,1-1.72-1.31,2.8,2.8,0,0,1-.13-2.26c5.19-13.88,18.6-27.94,34.2-27.94h6.78a26.47,26.47,0,0,1,18.81,7.93c7.64.57,13.7,7.41,13.7,15.74v10.52a2.69,2.69,0,0,1-1,2.13A2.34,2.34,0,0,1,276.88,129.47Zm-12.28-21a2.3,2.3,0,0,1,.4,0,2.5,2.5,0,0,1,1.88,1.61c1,2.61,3.87,8.73,7.54,12.16v-5.92c0-5.8-4.4-10.52-9.82-10.52a2.38,2.38,0,0,1-1.74-.77,21.83,21.83,0,0,0-16-7.12h-6.77c-12.29,0-23.1,10.4-28.34,21.56,9.78,1.35,39.64,4.1,51-10.13A2.39,2.39,0,0,1,264.61,108.43Z"/><path class="cls-9" d="M264.44,163.65a6.67,6.67,0,0,1-5.64-3.29,9.63,9.63,0,0,0-8.08-4.6H244.1a9.5,9.5,0,0,0-8.18,4.63,6.69,6.69,0,0,1-5.68,3.26h0a6.87,6.87,0,0,1-5.85-3.68l-8.55-16,4.26-2.61,8.54,16a2,2,0,0,0,1.65,1h0a1.87,1.87,0,0,0,1.55-.92,14.48,14.48,0,0,1,12.22-7h6.67a14.49,14.49,0,0,1,12.15,6.94,1.87,1.87,0,0,0,1.66.95,2,2,0,0,0,1.76-1.05l8.44-16,4.28,2.58-8.45,16a6.83,6.83,0,0,1-6,3.7Z"/><path class="cls-9" d="M198.31,239.89H193.4v-18.4c0-11.81,8.24-21.89,19.17-23.45l14.29-2a4.11,4.11,0,0,0,3.37-4.13h4.91a9.29,9.29,0,0,1-7.62,9.33l-14.3,2c-8.5,1.21-14.91,9.06-14.91,18.24v18.4Z"/><path class="cls-9" d="M301.44,239.89h-4.91v-18.4c0-9.18-6.41-17-14.91-18.24l-14.28-2a9.29,9.29,0,0,1-7.63-9.33h4.91A4.11,4.11,0,0,0,268,196l14.28,2c10.93,1.56,19.17,11.65,19.17,23.45Z"/><rect class="cls-9" x="213.04" y="229.38" width="4.91" height="21.03"/><rect class="cls-9" x="276.88" y="229.38" width="4.91" height="21.03"/><path class="cls-9" d="M247.42,226.75a2.41,2.41,0,0,1-2-1.12l-17.19-26.29,4-3,15.17,23.21,15.18-23.21,4,3-17.19,26.29A2.42,2.42,0,0,1,247.42,226.75Z"/><path class="cls-9" d="M227.77,229.38a2.34,2.34,0,0,1-1-.21,2.6,2.6,0,0,1-1.46-2l-4.91-28.92,4.83-.94,4.24,25,11.62-8.3,2.72,4.37-14.73,10.52A2.36,2.36,0,0,1,227.77,229.38Z"/><path class="cls-9" d="M267.06,229.38a2.35,2.35,0,0,1-1.36-.44L251,218.42l2.72-4.37,11.62,8.3,4.25-25,4.83.94-4.91,28.92a2.6,2.6,0,0,1-1.46,2A2.26,2.26,0,0,1,267.06,229.38Z"/><rect class="cls-9" x="244.96" y="224.12" width="4.91" height="26.29"/><rect class="cls-9" x="237.6" y="208.34" width="19.64" height="5.26"/><path class="cls-9" d="M218,250.41H213v-7.89H193.4v7.89h-4.91V239.89a2.55,2.55,0,0,1,2.46-2.63H215.5a2.55,2.55,0,0,1,2.46,2.63v10.52Z"/><path class="cls-9" d="M306.35,250.41h-4.91v-7.89H281.79v7.89h-4.91V239.89a2.54,2.54,0,0,1,2.46-2.63h24.55a2.54,2.54,0,0,1,2.46,2.63v10.52Z"/><path class="cls-9" d="M238.82,237.26a4,4,0,1,1,3.68-3.94A3.82,3.82,0,0,1,238.82,237.26Zm0-5.26a1.32,1.32,0,1,0,1.23,1.31A1.28,1.28,0,0,0,238.82,232Z"/></g><rect class="cls-4" x="135.91" y="13.57" width="36.59" height="27.01" rx="13.5" ry="13.5"/><rect class="cls-3" x="100.16" y="458.69" width="314.33" height="6.6" rx="1.5" ry="1.5"/><rect class="cls-4" x="310.38" y="13.07" width="96.93" height="11.06" rx="5.53" ry="5.53" transform="translate(717.7 37.21) rotate(180)"/><rect class="cls-4" x="368.37" y="365.69" width="127.93" height="11.06" rx="5.53" ry="5.53" transform="translate(864.67 742.44) rotate(-180)"/><rect class="cls-11" x="33.79" y="32.83" width="103.49" height="104.95" rx="22.76" ry="22.76"/><rect class="cls-6" x="33.79" y="32.83" width="103.49" height="104.95" rx="22.76" ry="22.76"/><path class="cls-7" d="M115.72,35.19h-13a18.89,18.89,0,0,1,19.11,18.67v63.78a18.89,18.89,0,0,1-19.11,18.67h13a18.89,18.89,0,0,0,19.11-18.67V53.86A18.89,18.89,0,0,0,115.72,35.19Z"/><path class="cls-21" d="M90.75,97.63l26.46,26.7a4.51,4.51,0,0,0,6.43,0,4.62,4.62,0,0,0,0-6.49l-31.71-32L87.12,81,72.53,66.27A13.24,13.24,0,0,0,69.89,51.5a12.94,12.94,0,0,0-13.8-3l8.17,8.24-1.95,5.71-5.66,2-8.17-8.24a13.24,13.24,0,0,0,3,13.93A12.94,12.94,0,0,0,66.1,72.75l8.9,9Z"/><path class="cls-22" d="M123.63,117.85l-31.71-32L87.12,81,72.53,66.27A13.24,13.24,0,0,0,69.89,51.5,12.93,12.93,0,0,0,58.1,47.91a12.92,12.92,0,0,1,6.61,3.59,13.24,13.24,0,0,1,2.64,14.77L81.94,81l4.81,4.85,31.71,32a4.6,4.6,0,0,1-.62,7,4.51,4.51,0,0,0,5.8-.52,4.62,4.62,0,0,0,0-6.49Z"/><path class="cls-23" d="M86.16,97.4,75.66,86.81a3.39,3.39,0,0,1,0-4.77,3.32,3.32,0,0,1,4.72,0L90.88,92.64a3.39,3.39,0,0,1,0,4.77A3.32,3.32,0,0,1,86.16,97.4Z"/><path class="cls-24" d="M49.43,123.88a6.17,6.17,0,0,1,0-8.66L76.62,87.78l8.59,8.66L58,123.88A6,6,0,0,1,49.43,123.88Z"/><path class="cls-25" d="M115.38,66.8,124.94,54l-6.24-6.3L106,57.32l-1.37,6.55.13.14-21,21.17,4,4,21-21.17.13.14Z"/><path class="cls-26" d="M118.7,47.67l-4.56,3.46,7.39,7.42L124.94,54Z"/><path class="cls-9" d="M93.18,85.44l16-16.11L115.63,68a1.18,1.18,0,0,0,.7-.45l9.38-12.59.09-.08a1.18,1.18,0,0,0,0-1.67L122.65,50l-3.12-3.15,0,0a1.18,1.18,0,0,0-1.67,0l-.09.1-12.47,9.47a1.18,1.18,0,0,0-.44.7l-1.37,6.55h0l-2.86,2.89-.11.13-13,13.07L73.92,66a14.48,14.48,0,0,0-3.19-15.33,14.15,14.15,0,0,0-15.05-3.28,1.19,1.19,0,0,0-.42,1.93L62.91,57l-1.53,4.48L57,63.05l-7.65-7.72a1.19,1.19,0,0,0-1.94.42,14.45,14.45,0,0,0,3.25,15.16,14.18,14.18,0,0,0,15.2,3.23L74,82.39a4.63,4.63,0,0,0,1,5.39L48.6,114.39a7.42,7.42,0,0,0-.44,9.83,7.28,7.28,0,0,0,10.7.49L85.2,98.11a4.55,4.55,0,0,0,5.34,1L105.34,114l.16.14,10.87,11a5.74,5.74,0,0,0,8.25-.16,5.85,5.85,0,0,0-.15-8Zm25.4-36.2,4.81,4.85-2,2.69-.07-.08-5.39-5.44ZM102.46,68l.11-.13,3-3a1.18,1.18,0,0,0,.28-1.2L107.05,58l7-5.3s5.85,5.86,6,5.92l-5.32,7.13-5.58,1.19a1.19,1.19,0,0,0-1.21.29L87.78,87.55l-2.35-2.37ZM66.94,71.92a1.18,1.18,0,0,0-1.33-.24,11.82,11.82,0,0,1-13.3-2.42,12.08,12.08,0,0,1-3.24-10.84l6.75,6.81a1.18,1.18,0,0,0,1.22.28l5.66-2a1.18,1.18,0,0,0,.73-.73l1.95-5.71a1.18,1.18,0,0,0-.28-1.21l-6.78-6.84a11.8,11.8,0,0,1,10.73,3.26,12.11,12.11,0,0,1,2.4,13.45,1.18,1.18,0,0,0,.24,1.31L85.86,81.4l-2.23,2.25-2.41-2.43a4.49,4.49,0,0,0-5.66-.6Zm-9.76,51.13a4.92,4.92,0,0,1-6.91-7L76.62,89.45l3.84,3.87,3.09,3.12ZM90,96.58h0a2.14,2.14,0,0,1-3,0l-1-1h0l-4.29-4.33L76.5,86a2.21,2.21,0,0,1,0-3.11,2.14,2.14,0,0,1,3,0L90,93.47A2.21,2.21,0,0,1,90,96.58Zm28,26.93-11.51-11.65-.17-.14L92.3,97.52a4.58,4.58,0,0,0-.58-5.7l-2.42-2.44,2.23-2.25,31.27,31.56C125.84,121.75,121.15,126.63,118,123.5Z"/><path class="cls-9" d="M64.1,109.38,53.84,119.74c-1,1.06.6,2.74,1.67,1.66L65.77,111A1.18,1.18,0,0,0,64.1,109.38Z"/><path class="cls-9" d="M119.91,119.55a1.18,1.18,0,0,0,0,2.35A1.18,1.18,0,0,0,119.91,119.55Z"/><rect class="cls-11" x="386.93" y="121.77" width="103.49" height="104.95" rx="22.76" ry="22.76"/><rect class="cls-6" x="386.93" y="121.77" width="103.49" height="104.95" rx="22.76" ry="22.76"/><path class="cls-7" d="M468.86,124.13h-13A18.89,18.89,0,0,1,475,142.8v63.78a18.89,18.89,0,0,1-19.11,18.67h13A18.89,18.89,0,0,0,488,206.58V142.8A18.89,18.89,0,0,0,468.86,124.13Z"/><path class="cls-21" d="M443.89,186.57l26.46,26.7a4.51,4.51,0,0,0,6.43,0,4.62,4.62,0,0,0,0-6.49l-31.71-32-4.81-4.85-14.59-14.73A13.24,13.24,0,0,0,423,140.44a12.94,12.94,0,0,0-13.8-3l8.17,8.24-1.95,5.71-5.66,2-8.17-8.24a13.24,13.24,0,0,0,3,13.93,12.94,12.94,0,0,0,14.63,2.66l8.9,9Z"/><path class="cls-22" d="M476.77,206.79l-31.71-32-4.81-4.85-14.59-14.73A13.24,13.24,0,0,0,423,140.44a12.93,12.93,0,0,0-11.79-3.59,12.92,12.92,0,0,1,6.61,3.59,13.24,13.24,0,0,1,2.64,14.77l14.59,14.73,4.81,4.85,31.71,32a4.6,4.6,0,0,1-.62,7,4.51,4.51,0,0,0,5.8-.52,4.62,4.62,0,0,0,0-6.49Z"/><path class="cls-23" d="M439.3,186.35l-10.49-10.59a3.39,3.39,0,0,1,0-4.77,3.32,3.32,0,0,1,4.72,0L444,181.58a3.39,3.39,0,0,1,0,4.77A3.32,3.32,0,0,1,439.3,186.35Z"/><path class="cls-24" d="M402.57,212.82a6.17,6.17,0,0,1,0-8.66l27.19-27.44,8.59,8.66-27.19,27.44A6,6,0,0,1,402.57,212.82Z"/><path class="cls-25" d="M468.52,155.74l9.56-12.82-6.24-6.3-12.71,9.65-1.37,6.55.13.14-21,21.17,4,4,21-21.17.13.14Z"/><path class="cls-26" d="M471.84,136.62l-4.56,3.46,7.39,7.42,3.42-4.58Z"/><path class="cls-9" d="M446.32,174.38l16-16.11,6.49-1.38a1.18,1.18,0,0,0,.7-.45l9.38-12.59.09-.08a1.18,1.18,0,0,0,0-1.67l-3.15-3.18-3.12-3.15,0,0a1.18,1.18,0,0,0-1.67,0l-.09.1-12.47,9.47a1.18,1.18,0,0,0-.44.7l-1.37,6.55h0l-2.86,2.89-.11.13-13,13.07-13.6-13.73a14.48,14.48,0,0,0-3.19-15.33,14.15,14.15,0,0,0-15.05-3.28,1.19,1.19,0,0,0-.42,1.93l7.65,7.73-1.53,4.48L410.11,152l-7.65-7.72a1.19,1.19,0,0,0-1.94.42,14.45,14.45,0,0,0,3.25,15.16,14.18,14.18,0,0,0,15.2,3.23l8.17,8.24a4.63,4.63,0,0,0,1,5.39l-26.37,26.61a7.42,7.42,0,0,0-.44,9.83,7.28,7.28,0,0,0,10.7.49l26.35-26.59a4.55,4.55,0,0,0,5.34,1L458.48,203l.16.14,10.87,11a5.74,5.74,0,0,0,8.25-.16,5.85,5.85,0,0,0-.15-8Zm25.4-36.2,4.81,4.85-2,2.69-.07-.08-5.39-5.44ZM455.6,157l.11-.13,3-3a1.18,1.18,0,0,0,.28-1.2l1.18-5.64,7-5.3s5.85,5.86,6,5.92l-5.32,7.13-5.58,1.19a1.19,1.19,0,0,0-1.21.29l-20.14,20.33-2.35-2.37Zm-35.52,3.91a1.18,1.18,0,0,0-1.33-.24,11.82,11.82,0,0,1-13.3-2.42,12.08,12.08,0,0,1-3.24-10.84l6.75,6.81a1.18,1.18,0,0,0,1.22.28l5.66-2a1.18,1.18,0,0,0,.73-.73l1.95-5.71a1.18,1.18,0,0,0-.28-1.21L411.46,138a11.8,11.8,0,0,1,10.73,3.26,12.11,12.11,0,0,1,2.4,13.45,1.18,1.18,0,0,0,.24,1.31L439,170.34l-2.23,2.25-2.41-2.43a4.49,4.49,0,0,0-5.66-.6ZM410.32,212a4.92,4.92,0,0,1-6.91-7l26.35-26.59,3.84,3.87,3.09,3.12Zm32.86-26.47h0a2.14,2.14,0,0,1-3,0l-1-1h0l-4.29-4.33-5.25-5.3a2.21,2.21,0,0,1,0-3.11,2.14,2.14,0,0,1,3,0l10.49,10.59A2.21,2.21,0,0,1,443.18,185.52Zm28,26.93L459.67,200.8l-.17-.14-14.07-14.2a4.58,4.58,0,0,0-.58-5.7l-2.42-2.44,2.23-2.25,31.27,31.56C479,210.69,474.29,215.57,471.19,212.44Z"/><path class="cls-9" d="M417.24,198.32,407,208.68c-1,1.06.6,2.74,1.67,1.66L418.91,200A1.18,1.18,0,0,0,417.24,198.32Z"/><path class="cls-9" d="M473,208.49a1.18,1.18,0,0,0,0,2.35A1.18,1.18,0,0,0,473,208.49Z"/><rect class="cls-11" x="90.9" y="342.4" width="103.49" height="104.95" rx="22.76" ry="22.76"/><rect class="cls-6" x="90.9" y="342.4" width="103.49" height="104.95" rx="22.76" ry="22.76"/><path class="cls-7" d="M172.82,344.77h-13a18.89,18.89,0,0,1,19.11,18.67v63.78a18.89,18.89,0,0,1-19.11,18.67h13a18.89,18.89,0,0,0,19.11-18.67V363.44A18.89,18.89,0,0,0,172.82,344.77Z"/><path class="cls-9" d="M178.67,389.4h-1.55v-5.78a6.2,6.2,0,0,0-6.19-6.19H148.47a6.19,6.19,0,0,0-5,2.61,6.19,6.19,0,0,0-5-2.61H115.92a6.2,6.2,0,0,0-6.19,6.19v5.78h-1.55a3.88,3.88,0,0,0-3.88,3.88v12a8.09,8.09,0,0,0,8.08,8.08h.58l-1.26,3.38a3.35,3.35,0,0,0,3.11,4.47h1.84a3.33,3.33,0,0,0,2.64-1.31l4.94-6.53h38.39l4.94,6.53a3.33,3.33,0,0,0,2.64,1.31H172a3.35,3.35,0,0,0,3.11-4.47l-1.26-3.38h.58a8.09,8.09,0,0,0,8.08-8.08v-12A3.88,3.88,0,0,0,178.67,389.4Z"/><path class="cls-27" d="M144.57,383.63a3.91,3.91,0,0,1,3.9-3.9h22.45a3.91,3.91,0,0,1,3.9,3.9v5.78h-2.16a4,4,0,0,0-3.58,2.38,3.85,3.85,0,0,0-.29,1.24H149.7a7.52,7.52,0,0,0-5.13,2.06Z"/><path class="cls-27" d="M144.57,400.45a5.14,5.14,0,0,1,5.13-5.13h19.08v6.76H144.57Z"/><path class="cls-27" d="M112,383.63a3.91,3.91,0,0,1,3.9-3.9h22.45a3.91,3.91,0,0,1,3.9,3.9v11.46l-.07-.07a7.5,7.5,0,0,0-5.06-2H118a3.93,3.93,0,0,0-2.6-3.41,3.81,3.81,0,0,0-1.27-.22H112Z"/><path class="cls-27" d="M142.27,400.45v1.63H118.06v-6.76h19.08A5.14,5.14,0,0,1,142.27,400.45Z"/><path class="cls-28" d="M117.46,418.48a1,1,0,0,1-.81.41H114.8a1,1,0,0,1-1-1.38l1.55-4.18h6Z"/><path class="cls-28" d="M172,418.88H170.2a1,1,0,0,1-.81-.41l-3.9-5.15h6l1.55,4.18A1,1,0,0,1,172,418.88Z"/><path class="cls-27" d="M174.47,411h-62.1a5.79,5.79,0,0,1-5.78-5.78v-12a1.59,1.59,0,0,1,1.59-1.59h6a1.59,1.59,0,0,1,1.59,1.59v9.95a1.15,1.15,0,0,0,1.15,1.15h53a1.15,1.15,0,0,0,1.15-1.15v-9.95a1.59,1.59,0,0,1,1.59-1.59h6a1.59,1.59,0,0,1,1.59,1.59v12h0A5.79,5.79,0,0,1,174.47,411Z"/></g></g></g></svg>