<?xml version="1.0" encoding="utf-8"?>
<!-- Generator: Adobe Illustrator 21.1.0, SVG Export Plug-In . SVG Version: 6.00 Build 0)  -->
<svg version="1.1" xmlns="http://www.w3.org/2000/svg" xmlns:xlink="http://www.w3.org/1999/xlink" x="0px" y="0px"
	 viewBox="0 0 5442.5 3061.4" style="enable-background:new 0 0 5442.5 3061.4;" xml:space="preserve">
<style type="text/css">
	.st0{display:none;}
	.st1{fill:#F9F9F9;}
</style>
<g id="Layer_1" class="st0">
</g>
<g id="Layer_5">
	<g>
		<path class="st1" d="M1897.8,1745c3.1,0,5.6,0.6,7.5,1.7c2,1.1,3,4.9,3,11.3v38.8c0,33.4-16.7,50.1-50.2,50.1h-312.5
			c-13.1,0-23.7,1.5-31.8,4.4c-8.1,2.9-14.3,6.5-18.8,10.8c-4.5,4.3-9.2,12.9-14,25.7c-4.9,12.8-6.3,28.1-4.2,46
			c2.1,17.8,8.7,30.4,20,37.6c11.3,7.3,26.1,13.1,44.5,17.6L1767,2035c57.4,12.5,99.2,30.3,125.4,53.5c26.2,23.1,39.3,57,39.3,101.5
			c0,47.4-15.7,85.9-47.2,115.7c-31.4,29.8-83,44.7-154.6,44.7H1386c-2.8,0-5.4-0.6-7.7-1.6c-2.4-1.1-3.5-4.6-3.5-10.5V2307
			c0-36.2,16.7-54.3,50.1-54.3H1762c13.4,0,24.1-1.4,32.2-4.4c8.1-2.9,14.2-6.6,18.6-10.9c4.3-4.3,8.5-10.1,12.5-17.5
			c4-7.3,5.9-18.4,5.7-33.2c-0.3-14.7-7.8-26.4-22.6-34.9c-14.8-8.5-30.5-14.5-47.2-18.1l-233.1-46.4
			c-109.7-24.2-164.6-79.4-164.6-165.4c0-26.8,4.9-51.1,14.6-72.9c9.7-21.9,23.6-40.4,41.5-55.7c18-15.3,39.8-27.1,65.6-35.6
			c25.8-8.3,54.3-12.5,85.4-12.5H1897.8z"/>
		<path class="st1" d="M2094.2,2256c19.1,9.4,48.4,14.2,88,14.2c13.4,0,27.3-0.4,42-1c14.6-0.7,28.5-1.6,41.8-2.7
			c13.2-1.1,24.6-2,34.1-2.7c9.4-0.7,15.7-1.1,18.7-1.1c6.4,0,9.6,3.6,9.6,10.9l1.2,37.6c0.9,10.9-1.5,18.8-7.1,24
			c-5.6,5.1-13.5,8.4-23.8,9.8c-13.9,1.7-31.9,2.9-53.9,3.5c-22,0.7-47.2,1.1-75.6,1.1c-41.8,0-76.3-5.1-103.4-15.5
			c-27.1-10.3-48.6-24.8-64.3-43.4c-15.7-18.7-26.7-41.4-33-68.1c-6.3-26.8-9.4-57-9.4-90.7c0-40.4,4.6-74.2,13.8-101.3
			c9.2-27.2,22.6-48.9,40.1-65c17.5-16.1,39-27.5,64.3-34c25.4-6.5,54.5-9.8,87.3-9.8c38.2,0,69.7,3.6,94.6,11
			c24.9,7.4,44.5,16.9,58.9,28.6c14.4,11.7,24.2,24.8,29.7,39.5c5.4,14.7,8.2,29.3,8.2,44.1c0,19-2.6,35.4-7.8,49.3
			c-5.1,13.9-13.3,25.7-24.7,35.3c-11.3,9.6-25.5,17.5-42.8,23.6c-17.3,6.1-38.1,11.4-62.3,15.9l-161.7,28.9
			C2062.7,2227.2,2075.2,2246.6,2094.2,2256z M2182.2,2105.6c18.4-3,32.9-6.4,43.7-10c10.7-3.6,18.8-7.7,24.2-12.1
			c5.4-4.5,8.9-9.6,10.4-15.5c1.6-5.8,2.3-12.8,2.3-20.9c0-17.5-7-30.3-20.9-38.4c-13.9-8.1-37.4-12.1-70.6-12.1
			c-24.2,0-44,2-59.3,6c-15.3,4-27.4,10.8-36.4,20.3c-8.9,9.5-14.9,21.7-18.2,36.8c-3.2,15-4.7,33.5-4.7,55.6v13.4L2182.2,2105.6z"
			/>
		<path class="st1" d="M2461.6,2348.8H2391c-6.4,0-9.6-3.6-9.6-10.9v-259.4c0-52.4,13.6-90.3,40.8-113.8
			c27.1-23.6,67.5-35.3,120.9-35.3c12.5,0,25.2,0.4,37.8,1.3c12.6,0.8,24,1.9,34.1,3.3c16.7,2.8,25.1,11.8,25.1,27.1l-1.3,38.9
			c0,5.8-3.2,8.8-9.6,8.8c-7.2,0-19.5-0.2-37-0.4c-17.4-0.3-34.8-0.4-52-0.4c-22.6,0-39.5,4.3-50.8,13
			c-11.3,8.6-16.9,23.4-16.9,44.3v272.8C2472.5,2345.1,2468.8,2348.8,2461.6,2348.8z"/>
		<path class="st1" d="M2987.5,1942.7c1.7-6.9,4.5-12,8.4-15c3.9-3.1,10.6-4.6,20.1-4.6h59.7c7,0,10.5,3,10.5,9.2
			c0,1.7-0.3,3.4-0.7,5c-0.4,1.7-1.5,4.3-3.1,7.9l-150.9,394c-3.6,7.8-9.3,11.7-17.1,11.7h-91.1c-5,0-8.8-1.3-11.5-4
			c-2.7-2.7-4.9-6-6.5-10.2l-145.8-391.5c-1.7-4.5-2.5-8.8-2.5-12.9c0-6.1,3.5-9.2,10.5-9.2h63.5c17.6,0,28.4,6.5,32.6,19.6
			l109.5,320.9h1.2L2987.5,1942.7z"/>
		<path class="st1" d="M3110.2,1809c0-36.5,17.7-54.7,53-54.7c35.1,0,52.7,18.2,52.7,54.7c0,35.1-17.5,52.7-52.7,52.7
			C3127.9,1861.7,3110.2,1844.1,3110.2,1809z M3126.5,2350.4c-6.2,0-9.2-3.1-9.2-9.2v-361c0-26.7,13.3-40.1,40.1-40.1h40.1
			c6.1,0,9.2,3,9.2,9.1v391.9c0,6.1-3.1,9.2-9.2,9.2H3126.5z"/>
		<path class="st1" d="M3440.2,2350.9c-76.6,0-130.2-21-160.9-63.1c-26.8-32.6-40.1-84.3-40.1-155c0-135.9,66.9-203.9,201-203.9
			c19.2,0,36.5,0,51.8,0c17,0,33.1,1,48.5,2.9c19.2,3.9,28.8,15.3,28.8,34.3v34.7c0,5.6-2.8,8.3-8.4,8.3h-40.5
			c-11.4-1.7-22.8-3-34.3-4c-11.4-0.9-22-1.4-31.8-1.4c-49.5,0-83,10.5-100.3,31.4c-17.3,17.3-25.9,49.8-25.9,97.7
			c0,57.4,10.6,94.7,31.8,112c15.4,19,46.8,28.4,94.4,28.4c9.8,0,20.3-0.4,31.8-1.3c11.4-0.8,22.9-2.2,34.3-4.2
			c13.4-1.9,23-2.9,28.8-2.9h8.8c5.6,0,8.3,3.8,8.3,11.3l2.9,37.6c0,19-9.6,29.4-28.8,31.3c-9.4,1.9-22.8,3.4-40.1,4.4
			C3483.1,2350.4,3463.1,2350.9,3440.2,2350.9z"/>
		<path class="st1" d="M3724.4,2256c19.1,9.4,48.4,14.2,88,14.2c13.3,0,27.3-0.4,41.9-1c14.7-0.7,28.6-1.6,41.8-2.7
			c13.2-1.1,24.6-2,34.1-2.7c9.4-0.7,15.7-1.1,18.7-1.1c6.5,0,9.6,3.6,9.6,10.9l1.3,37.6c0.8,10.9-1.5,18.8-7.1,24
			c-5.6,5.1-13.5,8.4-23.8,9.8c-14,1.7-31.9,2.9-53.9,3.5c-22,0.7-47.2,1.1-75.6,1.1c-41.8,0-76.2-5.1-103.4-15.5
			c-27.1-10.3-48.6-24.8-64.3-43.4c-15.7-18.7-26.7-41.4-33-68.1c-6.2-26.8-9.4-57-9.4-90.7c0-40.4,4.6-74.2,13.8-101.3
			c9.2-27.2,22.6-48.9,40.1-65c17.5-16.1,39-27.5,64.4-34c25.3-6.5,54.5-9.8,87.3-9.8c38.2,0,69.6,3.6,94.6,11
			c24.9,7.4,44.6,16.9,58.9,28.6c14.4,11.7,24.3,24.8,29.7,39.5c5.5,14.7,8.1,29.3,8.1,44.1c0,19-2.6,35.4-7.7,49.3
			c-5.2,13.9-13.4,25.7-24.7,35.3c-11.3,9.6-25.5,17.5-42.8,23.6c-17.3,6.1-38,11.4-62.3,15.9L3687,2198
			C3692.9,2227.2,3705.3,2246.6,3724.4,2256z M3812.4,2105.6c18.4-3,32.9-6.4,43.7-10c10.7-3.6,18.8-7.7,24.2-12.1
			c5.4-4.5,8.9-9.6,10.4-15.5c1.5-5.8,2.3-12.8,2.3-20.9c0-17.5-7-30.3-20.9-38.4c-13.9-8.1-37.4-12.1-70.6-12.1
			c-24.2,0-44,2-59.3,6c-15.3,4-27.5,10.8-36.4,20.3c-8.9,9.5-15,21.7-18.2,36.8c-3.2,15-4.8,33.5-4.8,55.6v13.4L3812.4,2105.6z"/>
	</g>
</g>
<g id="Layer_4">
	<g>
		<g>
			<path class="st1" d="M4727.5,2240.7c0,66.9-27.3,100.4-82,100.4h-518.7c-33.8,0-50.7-20-50.7-60.1v-58.5
				c0-43.8,10.4-78.8,31.3-105.2l263.3-280.6c57.4-71.2,92.9-119.7,106.7-145.5c18.2-33.8,34-85.9,47.3-156.5
				c0-66.4-18.2-106.7-54.7-121c-13.3-8.4-45.1-12.7-95.3-12.7c-39.1,0-107.8,7.6-206,22.9l-9.3,1.6c-1.8,0-4.4,0.5-8,1.6l-10-1.6
				c-18.2-4.2-29.1-21.1-32.7-50.6v-37.9c0-54.8,24.2-87.2,72.7-97.2c70.7-13.7,139.4-20.5,206-20.5
				c208.5,0,312.7,104.1,312.7,312.2c0,81.2-16.9,153.3-50.7,216.6c-22.6,43.2-76.5,116.7-161.3,220.5l-185.4,193.7h379.3
				c30.2,0,45.4,17.7,45.4,53V2240.7z"/>
			<path class="st1" d="M5416.1,1991.5c0,14.5-4.1,29.7-12.2,45.8c-11.3,22-33.6,32.9-67.1,32.9h-62.4v195.4
				c0,41.3-12.9,68.6-38.6,82c-9.5,2.2-28,3.2-55.6,3.2c-16.3,0-31.4-4.3-45.4-12.9c-19.4-13.4-29.1-38.8-29.1-76.4v-191.3l-341,1.6
				c-45.2,0-74.4-15.8-87.4-47.4c-6.3-16.6-10-39.7-10.9-69.2c0-18.2,4.5-36.7,13.6-55.5l334.2-620.6c20.3-39.7,49-59.5,86.1-59.5
				h80c21.2,0,42.3,12.3,63,37c20.8,24.7,31.2,52.5,31.2,83.6v569.9h62.4c31.6,0,53.6,11,65.8,33
				C5411.6,1961,5416.1,1977.1,5416.1,1991.5z M5110.3,1912.8v-500l-272.5,500H5110.3z"/>
		</g>
	</g>
</g>
<g id="Layer_3">
	<g>
		<path class="st1" d="M504.4,1546.2h335.5c13.3,0,24-1.4,32.1-4.4c8-2.9,14.2-6.5,18.5-10.8c4.3-4.3,8.5-10.1,12.5-17.5
			c4-7.3,5.9-18.3,5.6-33c-0.3-14.7-7.8-26.3-22.5-34.7c-14.7-8.4-30.4-14.5-47-18.1L607,1381.5c-109.2-24.1-163.8-79-163.8-164.6
			c0-26.6,4.9-50.8,14.6-72.6c9.7-21.8,23.5-40.2,41.3-55.5c17.9-15.3,39.7-27,65.3-35.4c25.7-8.3,54-12.5,85-12.5h295.1
			c-61.4-44.6-136.9-71-218.6-71c-205.6,0-372.2,166.7-372.2,372.2c0,98.5,38.3,188.1,100.8,254.7
			C455.6,1563.1,472.2,1546.2,504.4,1546.2z"/>
		<path class="st1" d="M985.5,1075.4v17.1c0,33.3-16.7,49.9-49.9,49.9h-311c-13,0-23.6,1.5-31.6,4.4c-8,2.9-14.3,6.5-18.7,10.8
			c-4.5,4.3-9.1,12.8-14,25.6c-4.9,12.8-6.2,28-4.1,45.8c2,17.7,8.7,30.2,19.9,37.4c11.2,7.2,26,13,44.3,17.5l224.5,45.7
			c57.1,12.5,98.7,30.2,124.8,53.2c26.1,23,39.1,56.7,39.1,101.1c0,47.1-15.7,85.5-47,115.2c-31.3,29.7-82.6,44.5-153.9,44.5H507.4
			c61.4,44.6,136.9,71,218.6,71c205.6,0,372.2-166.7,372.2-372.2C1098.2,1237.6,1055,1143,985.5,1075.4z"/>
	</g>
</g>
<g id="Layer_2">
	<path class="st1" d="M703.6,716.4c0,0-593.2,24.1-627.8,643.2c0,0-36,421.7,650.1,998.3c0,0,642.1-542.1,642.5-999
		C1368.4,1359,1366,731.4,703.6,716.4z M722.7,1903.9c-300.9,0-544.8-243.9-544.8-544.8s244-544.9,544.8-544.9
		c300.9,0,544.9,243.9,544.9,544.9S1023.6,1903.9,722.7,1903.9z"/>
</g>
</svg>
